<?xml version="1.0" standalone="no"?>
<!DOCTYPE svg PUBLIC "-//W3C//DTD SVG 20010904//EN"
 "http://www.w3.org/TR/2001/REC-SVG-20010904/DTD/svg10.dtd">
<svg version="1.0" xmlns="http://www.w3.org/2000/svg"
 width="1184.000000pt" height="946.000000pt" viewBox="0 0 1184.000000 946.000000"
 preserveAspectRatio="xMidYMid meet">

<g transform="translate(0.000000,946.000000) scale(0.100000,-0.100000)"
fill="#000000" stroke="none">
<path d="M3785 9112 c-62 -21 -114 -60 -150 -111 -53 -78 -55 -96 -55 -582 l0
-449 -1517 -2 -1518 -3 -49 -24 c-63 -31 -116 -84 -147 -147 l-24 -49 0 -1970
0 -1970 21 -46 c28 -60 87 -119 150 -150 l49 -24 1402 -3 1403 -2 2 -1513 3
-1512 21 -46 c28 -60 87 -119 150 -150 l49 -24 3325 0 3325 0 49 24 c63 31
116 84 147 147 24 48 24 54 27 366 l3 317 422 3 c407 3 424 4 468 24 60 28
125 93 153 153 l21 46 0 3745 0 3745 -29 58 c-19 39 -44 71 -78 97 -96 77 267
70 -3862 70 -3493 -1 -3714 -2 -3761 -18z m963 -324 c47 -29 75 -89 69 -151
-4 -51 -26 -88 -71 -121 -39 -29 -133 -29 -173 0 -49 36 -73 82 -73 138 0 131
133 203 248 134z m613 -25 c45 -48 57 -97 39 -156 -32 -108 -166 -151 -250
-80 -42 35 -60 74 -60 130 0 57 26 104 72 134 27 16 46 19 97 16 60 -3 66 -6
102 -44z m-4525 -1118 c20 -21 45 -35 59 -35 33 0 58 -28 50 -54 -15 -48 -17
-67 -7 -93 15 -44 -1 -71 -45 -79 -23 -4 -49 -18 -65 -35 -35 -38 -51 -37 -94
6 -20 21 -45 35 -59 35 -33 0 -58 28 -50 54 15 45 16 75 6 94 -19 35 2 70 46
78 23 4 49 18 65 35 35 38 51 37 94 -6z m5996 -122 l68 -67 68 67 c67 67 85
77 98 56 7 -12 -153 -179 -171 -179 -17 0 -165 154 -165 172 0 34 35 18 102
-49z m-2966 -3128 c20 -21 45 -35 59 -35 33 0 58 -28 50 -54 -15 -48 -17 -67
-7 -93 15 -44 -1 -71 -45 -79 -23 -4 -49 -18 -65 -35 -35 -38 -51 -37 -94 6
-20 21 -45 35 -59 35 -33 0 -58 28 -50 54 15 45 16 75 6 94 -19 35 2 70 46 78
23 4 49 18 65 35 35 38 51 37 94 -6z m5996 -122 l68 -67 68 67 c67 67 85 77
98 56 7 -12 -153 -179 -171 -179 -17 0 -165 154 -165 172 0 34 35 18 102 -49z"/>
<path d="M734 7557 c-20 -17 -27 -33 -27 -57 0 -39 40 -80 77 -80 68 0 101 86
51 135 -30 31 -66 32 -101 2z"/>
<path d="M3764 4307 c-20 -17 -27 -33 -27 -57 0 -39 40 -80 77 -80 68 0 101
86 51 135 -30 31 -66 32 -101 2z"/>
</g>
</svg>
