<svg width="250" height="250" viewBox="0 0 440 440" fill="none" xmlns="http://www.w3.org/2000/svg">
<g filter="url(#filter0_d_179_99)">
<rect x="20" y="15" width="400" height="400" rx="30" fill="#141414"/>
</g>
<path d="M175.06 347.15C177.28 347.15 179.22 347.58 180.88 348.44C182.56 349.28 183.85 350.5 184.75 352.1C185.67 353.68 186.13 355.53 186.13 357.65C186.13 359.77 185.67 361.61 184.75 363.17C183.85 364.73 182.56 365.93 180.88 366.77C179.22 367.59 177.28 368 175.06 368H168.25V347.15H175.06ZM175.06 365.21C177.5 365.21 179.37 364.55 180.67 363.23C181.97 361.91 182.62 360.05 182.62 357.65C182.62 355.23 181.97 353.34 180.67 351.98C179.37 350.62 177.5 349.94 175.06 349.94H171.67V365.21H175.06ZM204.67 359.33C204.67 359.95 204.63 360.51 204.55 361.01H191.92C192.02 362.33 192.51 363.39 193.39 364.19C194.27 364.99 195.35 365.39 196.63 365.39C198.47 365.39 199.77 364.62 200.53 363.08H204.22C203.72 364.6 202.81 365.85 201.49 366.83C200.19 367.79 198.57 368.27 196.63 368.27C195.05 368.27 193.63 367.92 192.37 367.22C191.13 366.5 190.15 365.5 189.43 364.22C188.73 362.92 188.38 361.42 188.38 359.72C188.38 358.02 188.72 356.53 189.4 355.25C190.1 353.95 191.07 352.95 192.31 352.25C193.57 351.55 195.01 351.2 196.63 351.2C198.19 351.2 199.58 351.54 200.8 352.22C202.02 352.9 202.97 353.86 203.65 355.1C204.33 356.32 204.67 357.73 204.67 359.33ZM201.1 358.25C201.08 356.99 200.63 355.98 199.75 355.22C198.87 354.46 197.78 354.08 196.48 354.08C195.3 354.08 194.29 354.46 193.45 355.22C192.61 355.96 192.11 356.97 191.95 358.25H201.1ZM214.035 368.27C212.735 368.27 211.565 368.04 210.525 367.58C209.505 367.1 208.695 366.46 208.095 365.66C207.495 364.84 207.175 363.93 207.135 362.93H210.675C210.735 363.63 211.065 364.22 211.665 364.7C212.285 365.16 213.055 365.39 213.975 365.39C214.935 365.39 215.675 365.21 216.195 364.85C216.735 364.47 217.005 363.99 217.005 363.41C217.005 362.79 216.705 362.33 216.105 362.03C215.525 361.73 214.595 361.4 213.315 361.04C212.075 360.7 211.065 360.37 210.285 360.05C209.505 359.73 208.825 359.24 208.245 358.58C207.685 357.92 207.405 357.05 207.405 355.97C207.405 355.09 207.665 354.29 208.185 353.57C208.705 352.83 209.445 352.25 210.405 351.83C211.385 351.41 212.505 351.2 213.765 351.2C215.645 351.2 217.155 351.68 218.295 352.64C219.455 353.58 220.075 354.87 220.155 356.51H216.735C216.675 355.77 216.375 355.18 215.835 354.74C215.295 354.3 214.565 354.08 213.645 354.08C212.745 354.08 212.055 354.25 211.575 354.59C211.095 354.93 210.855 355.38 210.855 355.94C210.855 356.38 211.015 356.75 211.335 357.05C211.655 357.35 212.045 357.59 212.505 357.77C212.965 357.93 213.645 358.14 214.545 358.4C215.745 358.72 216.725 359.05 217.485 359.39C218.265 359.71 218.935 360.19 219.495 360.83C220.055 361.47 220.345 362.32 220.365 363.38C220.365 364.32 220.105 365.16 219.585 365.9C219.065 366.64 218.325 367.22 217.365 367.64C216.425 368.06 215.315 368.27 214.035 368.27ZM225.801 349.28C225.181 349.28 224.661 349.07 224.241 348.65C223.821 348.23 223.611 347.71 223.611 347.09C223.611 346.47 223.821 345.95 224.241 345.53C224.661 345.11 225.181 344.9 225.801 344.9C226.401 344.9 226.911 345.11 227.331 345.53C227.751 345.95 227.961 346.47 227.961 347.09C227.961 347.71 227.751 348.23 227.331 348.65C226.911 349.07 226.401 349.28 225.801 349.28ZM227.481 351.47V368H224.061V351.47H227.481ZM238.631 351.2C239.911 351.2 241.041 351.46 242.021 351.98C243.021 352.48 243.801 353.11 244.361 353.87V351.47H247.811V368.27C247.811 369.79 247.491 371.14 246.851 372.32C246.211 373.52 245.281 374.46 244.061 375.14C242.861 375.82 241.421 376.16 239.741 376.16C237.501 376.16 235.641 375.63 234.161 374.57C232.681 373.53 231.841 372.11 231.641 370.31H235.031C235.291 371.17 235.841 371.86 236.681 372.38C237.541 372.92 238.561 373.19 239.741 373.19C241.121 373.19 242.231 372.77 243.071 371.93C243.931 371.09 244.361 369.87 244.361 368.27V365.51C243.781 366.29 242.991 366.95 241.991 367.49C241.011 368.01 239.891 368.27 238.631 368.27C237.191 368.27 235.871 367.91 234.671 367.19C233.491 366.45 232.551 365.43 231.851 364.13C231.171 362.81 230.831 361.32 230.831 359.66C230.831 358 231.171 356.53 231.851 355.25C232.551 353.97 233.491 352.98 234.671 352.28C235.871 351.56 237.191 351.2 238.631 351.2ZM244.361 359.72C244.361 358.58 244.121 357.59 243.641 356.75C243.181 355.91 242.571 355.27 241.811 354.83C241.051 354.39 240.231 354.17 239.351 354.17C238.471 354.17 237.651 354.39 236.891 354.83C236.131 355.25 235.511 355.88 235.031 356.72C234.571 357.54 234.341 358.52 234.341 359.66C234.341 360.8 234.571 361.8 235.031 362.66C235.511 363.52 236.131 364.18 236.891 364.64C237.671 365.08 238.491 365.3 239.351 365.3C240.231 365.3 241.051 365.08 241.811 364.64C242.571 364.2 243.181 363.56 243.641 362.72C244.121 361.86 244.361 360.86 244.361 359.72ZM260.643 351.2C261.943 351.2 263.103 351.47 264.123 352.01C265.163 352.55 265.973 353.35 266.553 354.41C267.133 355.47 267.423 356.75 267.423 358.25V368H264.033V358.76C264.033 357.28 263.663 356.15 262.923 355.37C262.183 354.57 261.173 354.17 259.893 354.17C258.613 354.17 257.593 354.57 256.833 355.37C256.093 356.15 255.723 357.28 255.723 358.76V368H252.303V351.47H255.723V353.36C256.283 352.68 256.993 352.15 257.853 351.77C258.733 351.39 259.663 351.2 260.643 351.2Z" fill="white"/>
<g clip-path="url(#clip0_179_99)">
<path d="M137.204 194.503C138.01 196.889 137.432 199.239 135.914 199.752C134.397 200.265 132.514 198.747 131.708 196.36C131.373 195.41 131.27 194.395 131.408 193.398L128.121 183.245L132.916 181.804L135.647 191.965C136.361 192.675 136.895 193.545 137.204 194.503Z" fill="#FFB6B6"/>
<path d="M139.217 137C139.217 137 131.977 137.315 131.662 141.094C131.347 144.874 122.354 168.446 122.354 168.446L129.426 190.065L134.926 186.527L131.783 169.625L142.391 153.509L139.217 137Z" fill="#E4E4E4"/>
<path d="M298.542 116.692C298.542 101.902 286.048 93.7663 271.777 89.9129C253.48 84.9725 240.079 94.9696 245.012 116.692C246.13 121.615 248.804 127.365 252.113 132.283H278.378C287.152 126.568 298.542 128.171 298.542 116.692Z" fill="#246AB3"/>
<path d="M121.153 290.604L124.984 291.178L129.297 274.176L123.643 273.328L121.153 290.604Z" fill="#FFB6B6"/>
<path d="M133.328 300.283C133.246 300.933 132.719 301.401 132.151 301.33L124.524 300.37C124.524 300.37 124.153 297.257 121.256 295.573L120.502 299.864L116.568 299.369L117.917 292.486C117.917 292.486 117.331 288.64 119.756 287.016C122.18 285.392 120.377 285.434 120.377 285.434L121.777 281.245L127.634 282.693L126.83 289.443L128.874 296.502L132.843 299.126C133.196 299.359 133.387 299.814 133.328 300.283L133.328 300.283Z" fill="#474747"/>
<path d="M167.673 291.642L171.546 291.734L173.705 274.326L167.989 274.191L167.673 291.642Z" fill="#FFB6B6"/>
<path d="M180.96 299.726C180.96 300.381 180.496 300.912 179.923 300.912H172.236C172.236 300.912 171.479 297.869 168.395 296.56L168.182 300.912H164.217L164.697 293.914C164.697 293.914 163.636 290.171 165.839 288.257C168.042 286.343 166.258 286.61 166.258 286.61L167.125 282.279L173.117 282.984L173.161 289.782L176.069 296.53L180.335 298.639C180.714 298.826 180.96 299.254 180.96 299.726L180.96 299.726Z" fill="#474747"/>
<path d="M138.722 176.899L131.259 201.571L132.601 238.877L121.838 276.934H130.383L148.188 239.39L152.999 206.116L166.303 278.289H174.571L172.642 202.643L166.628 176.249L138.722 176.899Z" fill="#474747"/>
<path d="M157.867 127.878L147.159 127.229L144.239 133.072L133.531 138.916L141.318 159.693L134.926 188.493C134.926 188.493 141.502 182.377 149.07 190.065C160.277 201.45 171.857 195.961 171.857 195.961L165.178 165.694L167.535 140.538C167.838 138.553 170.611 136.08 168.714 135.428L160.787 132.098L157.867 127.878H157.867Z" fill="#E4E4E4"/>
<path d="M155.503 131.571H142.696C142.715 130.7 142.587 129.836 142.323 129.053C142.316 129.922 142.184 130.78 141.936 131.571H141.354C140.464 131.57 139.743 130.526 139.742 129.239C136.733 125.895 137.127 121.792 139.742 117.194C139.743 111.297 143.227 102.456 147.012 106.155C147.134 106.146 149.053 104.916 149.176 104.916C152.506 104.92 153.651 109.27 154.657 113.865C155.803 113.1 156.593 116.291 157.164 121.906C157.331 123.545 157.479 125.39 157.612 127.404C157.979 129.093 157.33 130.894 156.163 131.425C155.949 131.522 155.726 131.572 155.502 131.573L155.503 131.571L155.503 131.571Z" fill="#474747"/>
<path d="M152.885 126.396C158.083 126.396 162.296 122.18 162.296 116.98C162.296 111.78 158.083 107.564 152.885 107.564C147.688 107.564 143.474 111.78 143.474 116.98C143.474 122.18 147.688 126.396 152.885 126.396Z" fill="#FFB6B6"/>
<path d="M153.784 131.89C152.903 133.066 151.361 133.534 149.975 133.046L145.784 131.571C145.391 131.571 145.058 131.341 145.039 131.043L145.037 131.01C144.995 130.389 143.849 130.285 143.583 130.873C143.476 131.109 143.354 131.342 143.218 131.571H142.458V113.249C142.458 110.106 145.809 107.559 149.943 107.559H149.943C153.473 107.559 156.523 109.433 157.263 112.057C157.263 112.057 162.51 116.949 159.417 119.699C156.325 122.45 160.824 124.689 160.824 124.689C161.717 127.858 158.877 133.009 154.856 134.058C154.382 134.182 154.286 131.89 153.784 131.89V131.89Z" fill="#474747"/>
<path d="M164.61 115.582C164.224 116.13 163.216 117.568 160.07 117.346C159.269 117.289 156.424 116.505 154.353 116.544C152.98 116.568 152.135 116.558 150.445 116.544C148.447 116.524 147.9 116.486 147.514 116.063C146.767 115.24 147.382 113.778 147.026 113.658C146.728 113.557 145.956 114.461 145.56 115.582C144.73 117.934 147.71 121.209 148.003 124.239C148.315 127.505 145.238 121.248 145.56 124.239C145.922 127.606 147.216 127.351 147.202 128.568C147.197 128.751 147.143 128.909 147.026 129.049C146.923 129.174 146.821 129.222 145.072 129.53C142.981 129.9 141.931 130.083 141.653 130.011C140.935 129.828 140.207 128.813 139.699 128.087C138.859 126.899 139.455 128.097 139.699 126.644C139.933 125.24 140.666 125.057 140.676 123.758C140.685 122.123 139.528 121.627 138.722 119.91C137.232 116.736 138.688 113.061 139.21 111.734C139.461 111.097 139.917 110.292 140.715 108.96C141.355 107.892 142.205 106.95 143.242 106.245C144.796 105.188 146.601 104.463 148.553 104.176C149.622 104.019 150.712 104.102 151.763 104.35L154.485 104.994C155.629 105.265 156.708 105.756 157.659 106.438C158.546 106.441 159.315 107.005 159.619 107.825C159.65 107.911 159.679 107.961 159.703 107.954C164.61 106.443 164.607 110.917 164.553 113.711C164.548 113.997 164.558 114.251 164.596 114.456V114.471C164.693 115.024 164.718 115.428 164.61 115.582L164.61 115.582Z" fill="#474747"/>
<path d="M285.005 77.2528V118.919C285.005 122.603 282.009 125.601 278.326 125.601H236.681C232.998 125.601 230.002 122.603 230.002 118.919V77.2528C230.002 73.5681 232.998 70.5706 236.681 70.5706H278.326C282.009 70.5706 285.005 73.5681 285.005 77.2528ZM278.326 124.815C281.581 124.815 284.219 122.175 284.219 118.919V97.9124C284.219 83.2461 272.336 71.3567 257.677 71.3567H236.681C233.427 71.3567 230.788 73.9965 230.788 77.2528V118.919C230.788 122.175 233.427 124.815 236.681 124.815H278.326Z" fill="white"/>
<path d="M252.571 157.829H239.126C238.787 157.829 238.512 157.553 238.512 157.214C238.512 156.875 238.787 156.599 239.126 156.599H252.571C252.91 156.599 253.185 156.875 253.185 157.214C253.185 157.553 252.91 157.829 252.571 157.829V157.829Z" fill="white"/>
<path d="M314.645 66.1001H301.201C300.862 66.1001 300.586 65.8242 300.586 65.485C300.586 65.1459 300.862 64.8701 301.201 64.8701H314.645C314.984 64.8701 315.26 65.1459 315.26 65.485C315.26 65.8242 314.984 66.1001 314.645 66.1001V66.1001Z" fill="white"/>
<path d="M314.645 79.2145H301.201C300.862 79.2145 300.586 78.9385 300.586 78.5994C300.586 78.2603 300.862 77.9845 301.201 77.9845H314.645C314.984 77.9845 315.26 78.2603 315.26 78.5994C315.26 78.9385 314.984 79.2145 314.645 79.2145V79.2145Z" fill="white"/>
<path d="M321.86 72.6616H293.986C293.647 72.6616 293.372 72.3857 293.372 72.0466C293.372 71.7074 293.647 71.4316 293.986 71.4316H321.86C322.199 71.4316 322.474 71.7074 322.474 72.0466C322.474 72.3857 322.199 72.6616 321.86 72.6616V72.6616Z" fill="white"/>
<path d="M294.035 168.839H235.902C232.432 168.839 229.61 166.015 229.61 162.544V141.33C229.61 137.859 232.432 135.035 235.902 135.035H294.035C297.505 135.035 300.327 137.859 300.327 141.33V162.544C300.327 166.015 297.505 168.839 294.035 168.839ZM235.902 135.821C232.866 135.821 230.395 138.292 230.395 141.33V162.544C230.395 165.582 232.866 168.053 235.902 168.053H294.035C297.071 168.053 299.541 165.582 299.541 162.544V141.33C299.541 138.292 297.071 135.821 294.035 135.821H235.902Z" fill="white"/>
<path d="M316.355 132.283H309.339C297.437 132.283 287.755 122.596 287.755 110.689V103.669C287.755 101.241 289.73 99.2649 292.157 99.2649H316.355C318.782 99.2649 320.757 101.241 320.757 103.669V127.879C320.757 130.307 318.782 132.283 316.355 132.283ZM292.157 100.051C290.16 100.051 288.541 101.671 288.541 103.669V110.689C288.541 122.181 297.852 131.497 309.338 131.497H316.355C318.352 131.497 319.971 129.877 319.971 127.879V112.459C319.971 105.606 314.419 100.051 307.569 100.051H292.157Z" fill="white"/>
<path d="M172.83 196.979C173.012 199.491 174.455 201.433 176.053 201.316C177.651 201.2 178.798 199.07 178.615 196.557C178.556 195.552 178.257 194.576 177.744 193.711L176.837 183.077L171.859 183.609L173.281 194.035C172.898 194.966 172.743 195.976 172.83 196.979Z" fill="#FFB6B6"/>
<path d="M165.209 135.035C165.209 135.035 172.449 135.35 172.764 139.129C173.078 142.908 176.541 167.159 176.541 167.159L178.115 191.409L172.449 192.354L165.571 163.694L165.209 135.035H165.209Z" fill="#E4E4E4"/>
<path d="M271.384 144.65C272.878 141.8 274.772 139.744 276.859 138.179H252.259C258.591 147.228 266.987 153.035 271.384 144.65Z" fill="#246AB3"/>
</g>
<defs>
<filter id="filter0_d_179_99" x="0" y="0" width="440" height="440" filterUnits="userSpaceOnUse" color-interpolation-filters="sRGB">
<feFlood flood-opacity="0" result="BackgroundImageFix"/>
<feColorMatrix in="SourceAlpha" type="matrix" values="0 0 0 0 0 0 0 0 0 0 0 0 0 0 0 0 0 0 127 0" result="hardAlpha"/>
<feMorphology radius="5" operator="dilate" in="SourceAlpha" result="effect1_dropShadow_179_99"/>
<feOffset dy="5"/>
<feGaussianBlur stdDeviation="7.5"/>
<feComposite in2="hardAlpha" operator="out"/>
<feColorMatrix type="matrix" values="0 0 0 0 0 0 0 0 0 0 0 0 0 0 0 0 0 0 0.25 0"/>
<feBlend mode="normal" in2="BackgroundImageFix" result="effect1_dropShadow_179_99"/>
<feBlend mode="normal" in="SourceGraphic" in2="effect1_dropShadow_179_99" result="shape"/>
</filter>
<clipPath id="clip0_179_99">
<rect width="205" height="237" fill="white" transform="translate(117 65)"/>
</clipPath>
</defs>
</svg>