<svg width="1440" height="2940" viewBox="0 0 2640 1725" fill="none" xmlns="http://www.w3.org/2000/svg">
<path d="M2527.41 787.389C2939.39 759.541 3140.95 875.803 3140.95 875.803L2883.63 1238.53L-42.2889 1238.53C-42.2889 1238.53 -149.588 809.119 -144.339 820.22C-144.339 820.22 251.347 1073.51 970.923 1061.24C1690.5 1048.97 2115.42 815.237 2527.41 787.389Z" stroke="#523A92" stroke-width="2"/>
<path d="M2583.31 643.409C3224.77 518.974 3506.87 816.866 3506.87 816.866L2925.18 848.491L2823.13 1199.24L-78.0073 1250.51C-78.0073 1250.51 -599.192 367.412 -78.0074 765.596C327.116 1075.11 877.068 1158.56 1510.33 1045.43C1995.8 958.698 2075.16 741.985 2583.31 643.409Z" stroke="#3756A6" stroke-width="2"/>
<path d="M946.87 1144.13C35.7842 1060.99 -34.8545 546.523 -83.8375 595.972L-83.8368 1265.84C755.414 1274.98 2942.36 1238.53 2942.36 1238.53L2942.36 726.922C1885.41 604.257 1857.96 1227.27 946.87 1144.13Z" stroke="#236BB4" stroke-width="2"/>
</svg>
