<svg width="250" height="250" viewBox="0 0 440 440" fill="none" xmlns="http://www.w3.org/2000/svg">
<g filter="url(#filter0_d_179_98)">
<rect x="20" y="15" width="400" height="400" rx="30" fill="#141414"/>
</g>
<path d="M134.83 365.828C134.83 366.888 134.58 367.888 134.08 368.828C133.58 369.768 132.78 370.538 131.68 371.138C130.58 371.718 129.17 372.008 127.45 372.008H123.67V380.468H120.25V359.618H127.45C129.05 359.618 130.4 359.898 131.5 360.458C132.62 360.998 133.45 361.738 133.99 362.678C134.55 363.618 134.83 364.668 134.83 365.828ZM127.45 369.218C128.75 369.218 129.72 368.928 130.36 368.348C131 367.748 131.32 366.908 131.32 365.828C131.32 363.548 130.03 362.408 127.45 362.408H123.67V369.218H127.45ZM153.242 371.798C153.242 372.418 153.202 372.978 153.122 373.478H140.492C140.592 374.798 141.082 375.858 141.962 376.658C142.842 377.458 143.922 377.858 145.202 377.858C147.042 377.858 148.342 377.088 149.102 375.548H152.792C152.292 377.068 151.382 378.318 150.062 379.298C148.762 380.258 147.142 380.738 145.202 380.738C143.622 380.738 142.202 380.388 140.942 379.688C139.702 378.968 138.722 377.968 138.002 376.688C137.302 375.388 136.952 373.888 136.952 372.188C136.952 370.488 137.292 368.998 137.972 367.718C138.672 366.418 139.642 365.418 140.882 364.718C142.142 364.018 143.582 363.668 145.202 363.668C146.762 363.668 148.152 364.008 149.372 364.688C150.592 365.368 151.542 366.328 152.222 367.568C152.902 368.788 153.242 370.198 153.242 371.798ZM149.672 370.718C149.652 369.458 149.202 368.448 148.322 367.688C147.442 366.928 146.352 366.548 145.052 366.548C143.872 366.548 142.862 366.928 142.022 367.688C141.182 368.428 140.682 369.438 140.522 370.718H149.672ZM160.027 366.338C160.527 365.498 161.187 364.848 162.007 364.388C162.847 363.908 163.837 363.668 164.977 363.668V367.208H164.107C162.767 367.208 161.747 367.548 161.047 368.228C160.367 368.908 160.027 370.088 160.027 371.768V380.468H156.607V363.938H160.027V366.338ZM175.051 366.728H171.991V380.468H168.541V366.728H166.591V363.938H168.541V362.768C168.541 360.868 169.041 359.488 170.041 358.628C171.061 357.748 172.651 357.308 174.811 357.308V360.158C173.771 360.158 173.041 360.358 172.621 360.758C172.201 361.138 171.991 361.808 171.991 362.768V363.938H175.051V366.728ZM185.252 380.738C183.692 380.738 182.282 380.388 181.022 379.688C179.762 378.968 178.772 377.968 178.052 376.688C177.332 375.388 176.972 373.888 176.972 372.188C176.972 370.508 177.342 369.018 178.082 367.718C178.822 366.418 179.832 365.418 181.112 364.718C182.392 364.018 183.822 363.668 185.402 363.668C186.982 363.668 188.412 364.018 189.692 364.718C190.972 365.418 191.982 366.418 192.722 367.718C193.462 369.018 193.832 370.508 193.832 372.188C193.832 373.868 193.452 375.358 192.692 376.658C191.932 377.958 190.892 378.968 189.572 379.688C188.272 380.388 186.832 380.738 185.252 380.738ZM185.252 377.768C186.132 377.768 186.952 377.558 187.712 377.138C188.492 376.718 189.122 376.088 189.602 375.248C190.082 374.408 190.322 373.388 190.322 372.188C190.322 370.988 190.092 369.978 189.632 369.158C189.172 368.318 188.562 367.688 187.802 367.268C187.042 366.848 186.222 366.638 185.342 366.638C184.462 366.638 183.642 366.848 182.882 367.268C182.142 367.688 181.552 368.318 181.112 369.158C180.672 369.978 180.452 370.988 180.452 372.188C180.452 373.968 180.902 375.348 181.802 376.328C182.722 377.288 183.872 377.768 185.252 377.768ZM200.633 366.338C201.133 365.498 201.793 364.848 202.613 364.388C203.453 363.908 204.443 363.668 205.583 363.668V367.208H204.713C203.373 367.208 202.353 367.548 201.653 368.228C200.973 368.908 200.633 370.088 200.633 371.768V380.468H197.213V363.938H200.633V366.338ZM228.737 363.668C230.037 363.668 231.197 363.938 232.217 364.478C233.257 365.018 234.067 365.818 234.647 366.878C235.247 367.938 235.547 369.218 235.547 370.718V380.468H232.157V371.228C232.157 369.748 231.787 368.618 231.047 367.838C230.307 367.038 229.297 366.638 228.017 366.638C226.737 366.638 225.717 367.038 224.957 367.838C224.217 368.618 223.847 369.748 223.847 371.228V380.468H220.457V371.228C220.457 369.748 220.087 368.618 219.347 367.838C218.607 367.038 217.597 366.638 216.317 366.638C215.037 366.638 214.017 367.038 213.257 367.838C212.517 368.618 212.147 369.748 212.147 371.228V380.468H208.727V363.938H212.147V365.828C212.707 365.148 213.417 364.618 214.277 364.238C215.137 363.858 216.057 363.668 217.037 363.668C218.357 363.668 219.537 363.948 220.577 364.508C221.617 365.068 222.417 365.878 222.977 366.938C223.477 365.938 224.257 365.148 225.317 364.568C226.377 363.968 227.517 363.668 228.737 363.668ZM238.758 372.128C238.758 370.468 239.098 368.998 239.778 367.718C240.478 366.438 241.418 365.448 242.598 364.748C243.798 364.028 245.118 363.668 246.558 363.668C247.858 363.668 248.988 363.928 249.948 364.448C250.928 364.948 251.708 365.578 252.288 366.338V363.938H255.738V380.468H252.288V378.008C251.708 378.788 250.918 379.438 249.918 379.958C248.918 380.478 247.778 380.738 246.498 380.738C245.078 380.738 243.778 380.378 242.598 379.658C241.418 378.918 240.478 377.898 239.778 376.598C239.098 375.278 238.758 373.788 238.758 372.128ZM252.288 372.188C252.288 371.048 252.048 370.058 251.568 369.218C251.108 368.378 250.498 367.738 249.738 367.298C248.978 366.858 248.158 366.638 247.278 366.638C246.398 366.638 245.578 366.858 244.818 367.298C244.058 367.718 243.438 368.348 242.958 369.188C242.498 370.008 242.268 370.988 242.268 372.128C242.268 373.268 242.498 374.268 242.958 375.128C243.438 375.988 244.058 376.648 244.818 377.108C245.598 377.548 246.418 377.768 247.278 377.768C248.158 377.768 248.978 377.548 249.738 377.108C250.498 376.668 251.108 376.028 251.568 375.188C252.048 374.328 252.288 373.328 252.288 372.188ZM268.57 363.668C269.87 363.668 271.03 363.938 272.05 364.478C273.09 365.018 273.9 365.818 274.48 366.878C275.06 367.938 275.35 369.218 275.35 370.718V380.468H271.96V371.228C271.96 369.748 271.59 368.618 270.85 367.838C270.11 367.038 269.1 366.638 267.82 366.638C266.54 366.638 265.52 367.038 264.76 367.838C264.02 368.618 263.65 369.748 263.65 371.228V380.468H260.23V363.938H263.65V365.828C264.21 365.148 264.92 364.618 265.78 364.238C266.66 363.858 267.59 363.668 268.57 363.668ZM278.573 372.188C278.573 370.488 278.913 368.998 279.593 367.718C280.293 366.418 281.253 365.418 282.473 364.718C283.693 364.018 285.093 363.668 286.673 363.668C288.673 363.668 290.323 364.148 291.623 365.108C292.943 366.048 293.833 367.398 294.293 369.158H290.603C290.303 368.338 289.823 367.698 289.163 367.238C288.503 366.778 287.673 366.548 286.673 366.548C285.273 366.548 284.153 367.048 283.313 368.048C282.493 369.028 282.083 370.408 282.083 372.188C282.083 373.968 282.493 375.358 283.313 376.358C284.153 377.358 285.273 377.858 286.673 377.858C288.653 377.858 289.963 376.988 290.603 375.248H294.293C293.813 376.928 292.913 378.268 291.593 379.268C290.273 380.248 288.633 380.738 286.673 380.738C285.093 380.738 283.693 380.388 282.473 379.688C281.253 378.968 280.293 377.968 279.593 376.688C278.913 375.388 278.573 373.888 278.573 372.188ZM312.851 371.798C312.851 372.418 312.811 372.978 312.731 373.478H300.101C300.201 374.798 300.691 375.858 301.571 376.658C302.451 377.458 303.531 377.858 304.811 377.858C306.651 377.858 307.951 377.088 308.711 375.548H312.401C311.901 377.068 310.991 378.318 309.671 379.298C308.371 380.258 306.751 380.738 304.811 380.738C303.231 380.738 301.811 380.388 300.551 379.688C299.311 378.968 298.331 377.968 297.611 376.688C296.911 375.388 296.561 373.888 296.561 372.188C296.561 370.488 296.901 368.998 297.581 367.718C298.281 366.418 299.251 365.418 300.491 364.718C301.751 364.018 303.191 363.668 304.811 363.668C306.371 363.668 307.761 364.008 308.981 364.688C310.201 365.368 311.151 366.328 311.831 367.568C312.511 368.788 312.851 370.198 312.851 371.798ZM309.281 370.718C309.261 369.458 308.811 368.448 307.931 367.688C307.051 366.928 305.961 366.548 304.661 366.548C303.481 366.548 302.471 366.928 301.631 367.688C300.791 368.428 300.291 369.438 300.131 370.718H309.281Z" fill="white"/>
<g clip-path="url(#clip0_179_98)">
<path d="M333.077 215.264C333.456 215.17 333.81 214.995 334.114 214.75C334.418 214.505 334.665 214.197 334.836 213.846C335.008 213.496 335.101 213.112 335.109 212.722C335.116 212.332 335.038 211.945 334.879 211.588L341.812 205.109L337.016 203.957L331.168 210.286C330.586 210.592 330.137 211.101 329.905 211.716C329.673 212.33 329.675 213.009 329.91 213.622C330.145 214.236 330.598 214.742 331.181 215.044C331.765 215.347 332.439 215.425 333.077 215.264Z" fill="#FFB6B6"/>
<path d="M336.658 210.044L333.425 205.489L345.568 192.936L348.388 173.15C348.527 172.172 348.881 171.237 349.422 170.41C349.964 169.584 350.681 168.887 351.523 168.369C352.364 167.851 353.31 167.524 354.292 167.412C355.274 167.301 356.269 167.406 357.206 167.722C358.897 168.293 360.292 169.512 361.085 171.111C361.878 172.709 362.004 174.557 361.436 176.249L354.242 197.58L336.658 210.044Z" fill="#E4E4E4"/>
<path d="M359.459 294.35H355.87L354.162 280.515L359.46 280.516L359.459 294.35Z" fill="#FFB6B6"/>
<path d="M361.39 301.161H358.843L358.389 298.758L357.224 301.161H350.47C350.146 301.161 349.831 301.057 349.57 300.866C349.309 300.674 349.117 300.404 349.02 300.095C348.924 299.786 348.929 299.454 349.035 299.149C349.14 298.843 349.341 298.578 349.607 298.395L355.001 294.672V292.242L360.674 292.581L361.39 301.161Z" fill="#474747"/>
<path d="M381.601 290.7L378.449 292.415L370.332 281.078L374.985 278.548L381.601 290.7Z" fill="#FFB6B6"/>
<path d="M386.554 295.76L384.317 296.977L382.769 295.083L382.895 297.75L376.962 300.976C376.678 301.131 376.352 301.191 376.031 301.147C375.71 301.103 375.412 300.958 375.179 300.733C374.947 300.507 374.793 300.214 374.739 299.894C374.686 299.575 374.735 299.248 374.882 298.959L377.839 293.112L376.677 290.978L381.822 288.565L386.554 295.76Z" fill="#474747"/>
<path d="M360.971 289.424H353.554V263.028L348.962 245.82C345.667 233.513 344.791 220.685 346.383 208.045L346.39 207.993L346.43 207.96C346.548 207.861 358.3 198.149 365.734 205.578C370.744 210.586 366.036 228.592 365.772 229.581V260.622L360.971 289.424Z" fill="#474747"/>
<path d="M360.953 164.965L360.914 164.925L351.457 165.069L346.408 176.913C341.733 184.168 346.203 188.295 346.517 188.948L345.623 197.851L345.047 203.594L344.123 212.841L365.797 205.764L363.386 196.112L366.172 182.19C366.791 179.111 366.638 175.927 365.727 172.922C364.817 169.917 363.177 167.183 360.953 164.965Z" fill="#E4E4E4"/>
<path d="M356.546 263.164L371.783 284.583L377.628 280.43L364.903 254.296L356.546 263.164Z" fill="#474747"/>
<path d="M355.301 162.663C360.123 162.663 364.032 158.756 364.032 153.937C364.032 149.118 360.123 145.212 355.301 145.212C350.48 145.212 346.571 149.118 346.571 153.937C346.571 158.756 350.48 162.663 355.301 162.663Z" fill="#FFB6B6"/>
<path d="M349.186 170.289L348.367 166.702C348.098 165.501 348.072 164.259 348.291 163.048C348.509 161.837 348.968 160.683 349.64 159.652C350.258 158.68 350.602 157.56 350.637 156.409C350.671 155.258 350.395 154.12 349.837 153.112C349.426 152.298 348.8 151.611 348.028 151.125C347.256 150.639 346.365 150.371 345.453 150.352H345.235V150.134C345.235 147.005 347.675 144.797 349.943 144.67C350.025 144.019 350.487 143.436 351.291 142.972C353.211 141.866 356.925 141.626 359.731 143.101C359.782 142.624 359.962 142.17 360.252 141.787C360.541 141.404 360.928 141.106 361.373 140.926C361.834 140.765 362.33 140.737 362.806 140.843C362.847 140.059 363.171 139.316 363.719 138.752C364.493 138.002 365.736 137.717 367.128 137.968C369.041 138.315 370.926 139.533 372.436 141.397C373.775 143.05 374.704 144.997 375.603 146.881C376.487 148.734 377.401 150.649 378.726 152.271C380.178 154.048 381.976 155.199 383.791 155.513C385.907 155.879 388.078 155.008 389.072 153.396L389.269 153.076L389.449 153.407C390.566 155.457 390.109 158.274 388.363 160.105C386.797 161.747 384.34 162.584 381.792 162.341C379.635 162.136 377.46 161.22 375.326 159.619C373.206 158.028 371.895 156.27 371.43 154.392C371.3 153.811 371.206 153.223 371.15 152.63C371.006 151.389 370.87 150.217 370.105 149.354C369.419 148.578 368.356 148.241 367.414 147.987L367.229 147.938C367.195 148.287 367.085 148.625 366.907 148.928C366.729 149.231 366.488 149.492 366.199 149.692C366.025 149.796 365.835 149.869 365.636 149.908C366.728 154.303 366.279 157.668 364.3 159.911C360.958 163.698 354.536 162.919 354.264 162.884L354.084 162.861L354.074 162.679C354.05 162.191 353.99 161.705 353.896 161.225C352.976 163.44 349.882 169.297 349.468 169.887L349.186 170.289Z" fill="#474747"/>
<path d="M112.162 184.378C111.907 184.714 111.581 184.99 111.208 185.186C110.834 185.382 110.422 185.494 110.001 185.514C109.58 185.533 109.159 185.461 108.769 185.301C108.379 185.14 108.028 184.897 107.743 184.587L98.3397 188.674L99.2556 183.428L108.044 180.351C108.597 179.906 109.295 179.679 110.004 179.713C110.713 179.747 111.386 180.04 111.893 180.537C112.401 181.033 112.708 181.698 112.758 182.407C112.808 183.115 112.596 183.816 112.162 184.378V184.378Z" fill="#A0616A"/>
<path d="M105.887 186.016L84.0476 195.739L84.0007 195.722L59.109 186.857C57.2549 185.889 55.8414 184.249 55.1578 182.272C54.4742 180.296 54.5723 178.134 55.4321 176.228C55.9086 175.175 56.6029 174.235 57.4693 173.469C58.3357 172.703 59.3545 172.13 60.4587 171.786C61.5628 171.442 62.7273 171.336 63.8755 171.475C65.0237 171.613 66.1295 171.993 67.1201 172.589L85.6442 183.741L103.607 181.415L105.887 186.016Z" fill="#E4E4E4"/>
<path d="M99.5085 251.519H311.926V128.617C311.925 127.696 311.559 126.813 310.907 126.162C310.256 125.511 309.372 125.145 308.451 125.144H102.984C102.063 125.145 101.179 125.511 100.528 126.162C99.8761 126.813 99.5096 127.696 99.5085 128.617V251.519Z" fill="#474747"/>
<path d="M305.363 129.947H106.071V243.02H305.363V129.947Z" fill="white"/>
<path d="M99.3237 248.194V263.36C99.3237 263.989 99.4476 264.611 99.6883 265.192C99.9291 265.773 100.282 266.301 100.727 266.745C101.172 267.19 101.7 267.543 102.281 267.783C102.862 268.024 103.485 268.148 104.114 268.148H182.516V298.079H181.474C181.393 298.079 181.312 298.095 181.236 298.126C181.161 298.157 181.092 298.203 181.034 298.261C180.977 298.319 180.931 298.387 180.9 298.463C180.868 298.538 180.852 298.619 180.852 298.701V300.783C180.852 300.864 180.868 300.945 180.9 301.021C180.931 301.096 180.977 301.165 181.034 301.222C181.092 301.28 181.161 301.326 181.236 301.357C181.312 301.388 181.393 301.404 181.474 301.404H230.145C230.227 301.404 230.308 301.388 230.383 301.357C230.459 301.326 230.528 301.28 230.585 301.222C230.643 301.165 230.689 301.096 230.72 301.021C230.751 300.945 230.768 300.864 230.768 300.783V298.701C230.768 298.619 230.751 298.538 230.72 298.463C230.689 298.387 230.643 298.319 230.585 298.261C230.528 298.203 230.459 298.157 230.383 298.126C230.308 298.095 230.227 298.079 230.145 298.079H229.104V268.148H307.505C308.135 268.148 308.758 268.024 309.339 267.783C309.92 267.543 310.448 267.19 310.893 266.745C311.338 266.301 311.691 265.773 311.931 265.192C312.172 264.611 312.296 263.989 312.296 263.36V248.194L99.3237 248.194Z" fill="#474747"/>
<path d="M168.042 185.866H119.476C119.137 185.866 118.813 185.731 118.573 185.492C118.334 185.253 118.199 184.929 118.199 184.59V164.896C118.199 164.558 118.334 164.234 118.573 163.995C118.813 163.755 119.137 163.621 119.476 163.62H168.042C168.38 163.621 168.705 163.755 168.944 163.995C169.183 164.234 169.318 164.558 169.318 164.896V184.59C169.318 184.929 169.183 185.253 168.944 185.492C168.705 185.731 168.38 185.866 168.042 185.866Z" fill="#246AB3"/>
<path d="M163.417 195.313H124.1C123.694 195.313 123.304 195.152 123.017 194.865C122.729 194.578 122.568 194.189 122.568 193.783C122.568 193.377 122.729 192.987 123.017 192.7C123.304 192.413 123.694 192.252 124.1 192.252H163.417C165.393 192.224 165.412 195.341 163.417 195.313Z" fill="#E4E4E4"/>
<path d="M163.417 202.33H124.1C123.694 202.33 123.304 202.169 123.017 201.882C122.73 201.595 122.568 201.205 122.568 200.799C122.568 200.393 122.73 200.004 123.017 199.717C123.304 199.43 123.694 199.268 124.1 199.268H163.417C165.393 199.241 165.412 202.358 163.417 202.33Z" fill="#E4E4E4"/>
<path d="M163.417 209.347H124.1C123.694 209.347 123.304 209.186 123.017 208.899C122.729 208.611 122.568 208.222 122.568 207.816C122.568 207.41 122.729 207.021 123.017 206.733C123.304 206.446 123.694 206.285 124.1 206.285H163.417C165.393 206.258 165.412 209.375 163.417 209.347Z" fill="#E4E4E4"/>
<path d="M230 185.866H181.434C181.096 185.866 180.772 185.731 180.532 185.492C180.293 185.253 180.158 184.929 180.158 184.59V164.896C180.158 164.558 180.293 164.234 180.532 163.995C180.772 163.755 181.096 163.621 181.434 163.62H230C230.339 163.621 230.663 163.755 230.903 163.995C231.142 164.234 231.277 164.558 231.277 164.896V184.59C231.277 184.929 231.142 185.253 230.903 185.492C230.663 185.731 230.339 185.866 230 185.866Z" fill="#246AB3"/>
<path d="M225.376 195.313H186.059C185.653 195.313 185.263 195.152 184.976 194.865C184.688 194.578 184.527 194.189 184.527 193.783C184.527 193.377 184.688 192.987 184.976 192.7C185.263 192.413 185.653 192.252 186.059 192.252H225.376C227.352 192.224 227.371 195.341 225.376 195.313Z" fill="#E4E4E4"/>
<path d="M225.376 202.33H186.059C185.653 202.33 185.263 202.169 184.976 201.882C184.688 201.595 184.527 201.205 184.527 200.799C184.527 200.393 184.688 200.004 184.976 199.717C185.263 199.43 185.653 199.268 186.059 199.268H225.376C227.352 199.241 227.371 202.358 225.376 202.33Z" fill="#E4E4E4"/>
<path d="M225.376 209.347H186.059C185.653 209.347 185.263 209.186 184.976 208.899C184.688 208.611 184.527 208.222 184.527 207.816C184.527 207.41 184.688 207.021 184.976 206.733C185.263 206.446 185.653 206.285 186.059 206.285H225.376C227.352 206.258 227.371 209.375 225.376 209.347Z" fill="#E4E4E4"/>
<path d="M291.959 185.866H243.393C243.055 185.866 242.73 185.731 242.491 185.492C242.252 185.253 242.117 184.929 242.117 184.59V164.896C242.117 164.558 242.252 164.234 242.491 163.995C242.73 163.755 243.055 163.621 243.393 163.62H291.959C292.298 163.621 292.622 163.755 292.862 163.995C293.101 164.234 293.236 164.558 293.236 164.896V184.59C293.236 184.929 293.101 185.253 292.862 185.492C292.622 185.731 292.298 185.866 291.959 185.866Z" fill="#6C63FF"/>
<path d="M287.335 195.313H248.018C247.611 195.313 247.222 195.152 246.935 194.865C246.647 194.578 246.486 194.189 246.486 193.783C246.486 193.377 246.647 192.987 246.935 192.7C247.222 192.413 247.611 192.252 248.018 192.252H287.335C289.31 192.224 289.33 195.341 287.335 195.313Z" fill="#E4E4E4"/>
<path d="M287.335 202.33H248.018C247.612 202.33 247.223 202.168 246.936 201.881C246.649 201.594 246.488 201.205 246.488 200.799C246.488 200.394 246.649 200.005 246.936 199.718C247.223 199.431 247.612 199.269 248.018 199.268H287.335C289.31 199.241 289.33 202.358 287.335 202.33Z" fill="#E4E4E4"/>
<path d="M287.335 209.347H248.018C247.611 209.347 247.222 209.186 246.935 208.899C246.647 208.611 246.486 208.222 246.486 207.816C246.486 207.41 246.647 207.021 246.935 206.733C247.222 206.446 247.611 206.285 248.018 206.285H287.335C289.31 206.258 289.33 209.375 287.335 209.347Z" fill="#E4E4E4"/>
<path d="M331.833 163.887L331.965 188.571L332.507 188.541L333.021 197.68L332.016 197.735L332.044 203.225L332.849 203.209L333.012 212.356L332.096 212.373L332.532 292.924C332.541 295.033 331.713 297.06 330.229 298.559C328.745 300.059 326.726 300.909 324.616 300.922L235.582 301.404C233.471 301.414 231.443 300.587 229.943 299.103C228.442 297.62 227.592 295.602 227.579 293.493L226.879 164.456C226.87 162.346 227.698 160.32 229.182 158.82C230.667 157.32 232.685 156.471 234.796 156.457L323.829 155.975C325.94 155.966 327.967 156.794 329.468 158.277C330.968 159.76 331.818 161.778 331.833 163.887Z" fill="#474747"/>
<path d="M324.745 295.848L235.397 296.332C234.747 296.335 234.122 296.079 233.659 295.622C233.197 295.165 232.935 294.543 232.931 293.893L232.226 163.998C232.223 163.348 232.478 162.723 232.936 162.261C233.393 161.799 234.016 161.537 234.666 161.532L324.013 161.048C324.664 161.045 325.289 161.301 325.751 161.758C326.214 162.215 326.476 162.837 326.48 163.487L327.185 293.382C327.188 294.032 326.932 294.657 326.475 295.119C326.017 295.581 325.395 295.843 324.745 295.848Z" fill="white"/>
<path d="M322.102 159.33C322.476 159.33 322.779 159.027 322.779 158.653C322.779 158.279 322.476 157.976 322.102 157.976C321.728 157.976 321.425 158.279 321.425 158.653C321.425 159.027 321.728 159.33 322.102 159.33Z" fill="white"/>
<path d="M305.561 197.609H253.85C253.489 197.609 253.144 197.466 252.889 197.211C252.634 196.956 252.491 196.611 252.49 196.251V175.281C252.491 174.921 252.634 174.576 252.889 174.321C253.144 174.067 253.489 173.924 253.85 173.923H305.561C305.921 173.924 306.267 174.067 306.522 174.321C306.776 174.576 306.92 174.921 306.92 175.281V196.251C306.92 196.611 306.776 196.956 306.522 197.211C306.267 197.466 305.921 197.609 305.561 197.609Z" fill="#246AB3"/>
<path d="M300.637 207.668H258.774C258.341 207.668 257.926 207.497 257.62 207.191C257.314 206.885 257.142 206.471 257.142 206.038C257.142 205.606 257.314 205.191 257.62 204.886C257.926 204.58 258.341 204.408 258.774 204.408H300.637C302.74 204.379 302.762 207.698 300.637 207.668Z" fill="#E4E4E4"/>
<path d="M300.637 215.14H258.773C258.341 215.139 257.927 214.967 257.622 214.661C257.317 214.356 257.145 213.941 257.145 213.51C257.145 213.078 257.317 212.663 257.622 212.358C257.927 212.052 258.341 211.88 258.773 211.879H300.637C302.74 211.85 302.761 215.169 300.637 215.14Z" fill="#E4E4E4"/>
<path d="M300.637 222.611H258.774C258.341 222.611 257.926 222.439 257.62 222.133C257.314 221.828 257.142 221.413 257.142 220.981C257.142 220.548 257.314 220.134 257.62 219.828C257.926 219.522 258.341 219.351 258.774 219.351H300.637C302.74 219.321 302.762 222.64 300.637 222.611Z" fill="#E4E4E4"/>
<path d="M305.561 258.455H253.85C253.489 258.455 253.144 258.311 252.889 258.057C252.634 257.802 252.491 257.457 252.49 257.097V236.127C252.491 235.767 252.634 235.422 252.889 235.167C253.144 234.913 253.489 234.769 253.85 234.769H305.561C305.921 234.769 306.267 234.913 306.522 235.167C306.776 235.422 306.92 235.767 306.92 236.127V257.097C306.92 257.457 306.776 257.802 306.522 258.057C306.267 258.312 305.921 258.455 305.561 258.455Z" fill="#246AB3"/>
<path d="M300.637 268.514H258.774C258.341 268.514 257.926 268.343 257.62 268.037C257.314 267.731 257.142 267.317 257.142 266.884C257.142 266.452 257.314 266.037 257.62 265.732C257.926 265.426 258.341 265.254 258.774 265.254H300.637C302.74 265.225 302.762 268.544 300.637 268.514Z" fill="#E4E4E4"/>
<path d="M300.637 275.985H258.773C258.341 275.985 257.927 275.813 257.622 275.507C257.317 275.201 257.145 274.787 257.145 274.355C257.145 273.923 257.317 273.509 257.622 273.204C257.927 272.898 258.341 272.726 258.773 272.725H300.637C302.74 272.696 302.761 276.015 300.637 275.985Z" fill="#E4E4E4"/>
<path d="M300.637 283.457H258.774C258.341 283.457 257.926 283.285 257.62 282.979C257.314 282.673 257.142 282.259 257.142 281.827C257.142 281.394 257.314 280.98 257.62 280.674C257.926 280.368 258.341 280.196 258.774 280.196H300.637C302.74 280.167 302.762 283.486 300.637 283.457Z" fill="#E4E4E4"/>
<path d="M147.103 295.066L146.931 223.928L147.579 223.926L147.548 210.842L146.899 210.844L146.846 189.002C146.844 188.187 146.682 187.379 146.367 186.626C146.053 185.873 145.594 185.19 145.015 184.614C144.437 184.039 143.75 183.583 142.995 183.273C142.241 182.962 141.432 182.803 140.616 182.805L94.3607 182.917C93.5444 182.919 92.7365 183.082 91.9832 183.396C91.2298 183.71 90.5457 184.169 89.9698 184.747C89.394 185.325 88.9378 186.011 88.6273 186.765C88.3167 187.52 88.1578 188.328 88.1598 189.144L88.1966 204.373L87.1631 204.399L87.3914 213.547L88.2187 213.526L88.2236 215.545L87.3432 215.567L87.5714 224.714L88.2458 224.698L88.4162 295.207C88.4167 296.024 88.5784 296.832 88.892 297.585C89.2057 298.339 89.6651 299.023 90.244 299.599C90.8228 300.175 91.5098 300.631 92.2653 300.941C93.0209 301.25 93.8302 301.408 94.6469 301.405L140.902 301.293C142.55 301.287 144.128 300.628 145.29 299.461C146.453 298.293 147.105 296.713 147.103 295.066Z" fill="#474747"/>
<path d="M93.2325 298.558C92.6556 298.351 92.1566 297.971 91.8031 297.47C91.4497 296.97 91.259 296.373 91.2571 295.76L90.9981 188.577C90.9962 187.788 91.3082 187.03 91.8654 186.47C92.4226 185.911 93.1794 185.596 93.9693 185.594L103.811 185.57L103.689 185.87C103.478 186.392 103.398 186.957 103.457 187.517C103.515 188.076 103.711 188.613 104.026 189.079C104.341 189.545 104.766 189.927 105.264 190.19C105.761 190.454 106.316 190.591 106.879 190.589L128.72 190.537C129.264 190.489 129.789 190.315 130.253 190.027C130.716 189.739 131.106 189.347 131.389 188.881C131.669 188.423 131.836 187.905 131.877 187.37C131.918 186.835 131.832 186.298 131.626 185.803L131.503 185.503L141.669 185.478C142.458 185.477 143.216 185.79 143.776 186.346C144.336 186.903 144.651 187.659 144.654 188.448L144.902 290.71C144.904 292.804 144.076 294.813 142.598 296.297C141.12 297.781 139.113 298.619 137.018 298.627L94.2427 298.73C93.8985 298.731 93.5568 298.673 93.2325 298.558Z" fill="white"/>
<path d="M110.083 188.11C110.457 188.11 110.76 187.807 110.76 187.434C110.76 187.06 110.457 186.757 110.083 186.757C109.709 186.757 109.406 187.06 109.406 187.434C109.406 187.807 109.709 188.11 110.083 188.11Z" fill="white"/>
<path d="M136.258 221.051H101.116C100.871 221.051 100.636 220.953 100.463 220.78C100.29 220.607 100.193 220.372 100.192 220.128V205.877C100.193 205.633 100.29 205.398 100.463 205.225C100.636 205.052 100.871 204.955 101.116 204.954H136.258C136.503 204.955 136.737 205.052 136.911 205.225C137.084 205.398 137.181 205.633 137.181 205.877V220.128C137.181 220.372 137.084 220.607 136.911 220.78C136.737 220.953 136.503 221.051 136.258 221.051Z" fill="#246AB3"/>
<path d="M132.912 227.887H104.462C104.316 227.887 104.172 227.859 104.037 227.803C103.903 227.748 103.78 227.666 103.677 227.563C103.574 227.46 103.492 227.338 103.436 227.204C103.38 227.069 103.352 226.925 103.352 226.779C103.352 226.633 103.38 226.489 103.436 226.355C103.492 226.22 103.574 226.098 103.677 225.995C103.78 225.892 103.903 225.811 104.037 225.755C104.172 225.7 104.316 225.671 104.462 225.671H132.912C134.341 225.651 134.355 227.907 132.912 227.887Z" fill="#E4E4E4"/>
<path d="M132.912 232.964H104.462C104.168 232.964 103.886 232.847 103.678 232.64C103.471 232.432 103.354 232.15 103.354 231.856C103.354 231.563 103.471 231.281 103.678 231.073C103.886 230.865 104.168 230.749 104.462 230.749H132.912C134.341 230.729 134.355 232.984 132.912 232.964Z" fill="#E4E4E4"/>
<path d="M132.912 238.041H104.462C104.316 238.042 104.172 238.013 104.037 237.958C103.903 237.902 103.78 237.821 103.677 237.718C103.574 237.615 103.492 237.493 103.436 237.358C103.38 237.223 103.352 237.079 103.352 236.934C103.352 236.788 103.38 236.644 103.436 236.509C103.492 236.375 103.574 236.252 103.677 236.149C103.78 236.047 103.903 235.965 104.037 235.91C104.172 235.854 104.316 235.826 104.462 235.826H132.912C134.341 235.806 134.355 238.061 132.912 238.041Z" fill="#E4E4E4"/>
<path d="M136.258 263.754H101.116C100.871 263.754 100.636 263.657 100.463 263.484C100.29 263.311 100.193 263.076 100.192 262.831V248.581C100.193 248.336 100.29 248.102 100.463 247.929C100.636 247.755 100.871 247.658 101.116 247.658H136.258C136.503 247.658 136.737 247.755 136.911 247.929C137.084 248.102 137.181 248.336 137.181 248.581V262.831C137.181 263.076 137.084 263.311 136.911 263.484C136.737 263.657 136.503 263.754 136.258 263.754Z" fill="#246AB3"/>
<path d="M132.912 270.59H104.462C104.316 270.591 104.172 270.562 104.037 270.507C103.903 270.451 103.78 270.37 103.677 270.267C103.574 270.164 103.492 270.042 103.436 269.907C103.38 269.773 103.352 269.628 103.352 269.483C103.352 269.337 103.38 269.193 103.436 269.058C103.492 268.924 103.574 268.801 103.677 268.699C103.78 268.596 103.903 268.514 104.037 268.459C104.172 268.403 104.316 268.375 104.462 268.375H132.912C134.341 268.355 134.355 270.61 132.912 270.59Z" fill="#E4E4E4"/>
<path d="M132.912 275.668H104.462C104.168 275.668 103.886 275.551 103.678 275.343C103.471 275.135 103.354 274.854 103.354 274.56C103.354 274.266 103.471 273.984 103.678 273.777C103.886 273.569 104.168 273.452 104.462 273.452H132.912C134.341 273.432 134.355 275.688 132.912 275.668Z" fill="#E4E4E4"/>
<path d="M132.912 280.745H104.462C104.316 280.745 104.172 280.717 104.037 280.661C103.903 280.606 103.78 280.524 103.677 280.421C103.574 280.318 103.492 280.196 103.436 280.061C103.38 279.927 103.352 279.783 103.352 279.637C103.352 279.491 103.38 279.347 103.436 279.213C103.492 279.078 103.574 278.956 103.677 278.853C103.78 278.75 103.903 278.669 104.037 278.613C104.172 278.557 104.316 278.529 104.462 278.529H132.912C134.341 278.509 134.355 280.765 132.912 280.745Z" fill="#E4E4E4"/>
<path d="M57.7013 297.512L61.5199 297.511L63.3364 282.792H57.7004L57.7013 297.512Z" fill="#A0616A"/>
<path d="M56.7273 296.266L57.8021 296.266L61.9982 294.56L64.2472 296.265H64.2475C65.5185 296.265 66.7374 296.77 67.6361 297.668C68.5348 298.566 69.0397 299.784 69.0398 301.055V301.21L56.7275 301.211L56.7273 296.266Z" fill="#474747"/>
<path d="M72.4989 295.107L76.2233 295.947L81.2397 281.989L75.7424 280.749L72.4989 295.107Z" fill="#A0616A"/>
<path d="M71.8231 293.677L72.8715 293.913L77.3405 293.174L79.1584 295.332L79.1587 295.332C80.3984 295.612 81.4762 296.372 82.1548 297.446C82.8335 298.52 83.0576 299.82 82.7777 301.059L82.7434 301.211L70.7334 298.5L71.8231 293.677Z" fill="#474747"/>
<path d="M52.8652 207.525C51.0749 212.921 51.2642 218.778 53.2955 225.065L54.1638 260.46C54.1638 260.46 52.8701 283.672 57.0448 291.839H63.0994L66.0972 258.34L66.4736 235.855L79.454 254.825L71.1864 291.292L78.6382 291.957L92.0543 252.383L75.5015 213.988L52.8652 207.525Z" fill="#474747"/>
<path d="M76.5811 215.122L54.5652 211.603C53.9878 211.418 53.4573 211.11 53.01 210.701C52.5627 210.292 52.2093 209.791 51.974 209.233C51.7388 208.674 51.6272 208.071 51.647 207.466C51.6668 206.86 51.8175 206.266 52.0888 205.724L53.0872 203.728L52.6993 182.76C52.6526 180.032 53.3254 177.341 54.6501 174.955C55.9748 172.57 57.9047 170.576 60.2456 169.173L62.3925 167.89L63.4775 165.136L73.4823 165.38L73.5114 168.992L77.0944 174.702L77.0943 174.725L76.8694 205.804L75.882 209.011L77.3751 212.741L76.5811 215.122Z" fill="#E4E4E4"/>
<path d="M69.396 161.712C74.4165 161.712 78.4864 157.645 78.4864 152.627C78.4864 147.61 74.4165 143.542 69.396 143.542C64.3756 143.542 60.3057 147.61 60.3057 152.627C60.3057 157.645 64.3756 161.712 69.396 161.712Z" fill="#A0616A"/>
<path d="M59.9302 154.608C59.6591 153.466 59.7836 151.86 59.9368 150.71C60.133 149.195 60.6457 147.737 61.4416 146.432C62.2375 145.127 63.2989 144.004 64.5569 143.135C65.0393 142.769 65.6125 142.542 66.2147 142.477C66.5158 142.452 66.8171 142.522 67.0755 142.678C67.334 142.835 67.5364 143.069 67.6537 143.347C67.8053 142.969 68.0328 142.626 68.3223 142.339C68.6117 142.052 68.9569 141.827 69.3366 141.679C70.0992 141.387 70.9195 141.277 71.7323 141.356C73.3077 141.486 74.8185 142.04 76.1045 142.958C77.3905 143.877 78.4036 145.127 79.0363 146.574C79.2791 147.151 79.9573 145.022 80.265 145.566C80.5477 146.132 81.0409 146.565 81.639 146.773C82.2418 146.941 82.4867 149.423 82.7239 148.844C82.9079 149.272 82.9807 149.739 82.9354 150.203C82.89 150.666 82.7281 151.11 82.4647 151.494C82.2012 151.878 81.8448 152.19 81.4286 152.399C81.0125 152.608 80.5501 152.709 80.0845 152.691C79.4759 152.613 78.8727 152.497 78.2781 152.346C77.1863 152.208 76.0819 152.475 75.1734 153.096C74.2649 153.716 73.6153 154.648 73.3471 155.714C73.1811 155.094 72.9161 154.505 72.5621 153.969C72.3824 153.703 72.1417 153.483 71.8599 153.328C71.5781 153.173 71.2634 153.088 70.9419 153.079C70.6347 153.115 70.3379 153.212 70.0698 153.366C69.8017 153.52 69.5679 153.727 69.3828 153.975C68.9826 154.445 68.682 154.993 68.2789 155.46C67.0959 156.83 65.496 160.026 63.8102 159.793C62.4798 159.609 60.3004 156.166 59.9302 154.608Z" fill="#474747"/>
<path d="M103.284 208.491C102.897 208.659 102.478 208.74 102.056 208.728C101.635 208.717 101.221 208.613 100.843 208.425C100.466 208.236 100.135 207.967 99.8729 207.637C99.6109 207.306 99.4246 206.923 99.3271 206.512L89.1254 205.482L92.491 201.354L101.663 202.965C102.363 202.847 103.082 202.99 103.684 203.366C104.286 203.743 104.729 204.327 104.929 205.008C105.129 205.689 105.072 206.42 104.769 207.062C104.465 207.704 103.937 208.212 103.284 208.491Z" fill="#A0616A"/>
<path d="M97.0092 206.853L73.2016 204.661L73.1689 204.623L55.7936 184.726C54.6501 182.975 54.2196 180.854 54.5901 178.796C54.9607 176.738 56.1043 174.9 57.7869 173.657C58.7178 172.972 59.7835 172.491 60.9139 172.246C62.0442 172.002 63.2136 171.999 64.3449 172.239C65.4762 172.479 66.544 172.955 67.4777 173.637C68.4115 174.319 69.1902 175.191 69.7626 176.195L80.4645 194.976L97.2714 201.724L97.0092 206.853Z" fill="#E4E4E4"/>
<path d="M321.35 209.015C321.739 209.052 322.131 209.004 322.499 208.873C322.867 208.743 323.202 208.533 323.48 208.26C323.758 207.986 323.973 207.654 324.109 207.288C324.245 206.923 324.299 206.532 324.268 206.143L332.955 202.32L328.811 199.647L321.196 203.687C320.546 203.783 319.954 204.114 319.531 204.618C319.109 205.121 318.886 205.762 318.905 206.419C318.924 207.076 319.183 207.703 319.634 208.181C320.085 208.66 320.695 208.956 321.35 209.015V209.015Z" fill="#FFB6B6"/>
<path d="M326.457 205.274L324.915 199.906L340.53 192.076L349.742 174.337C350.197 173.46 350.84 172.694 351.625 172.094C352.41 171.493 353.317 171.072 354.283 170.862C355.249 170.651 356.249 170.656 357.213 170.875C358.177 171.094 359.081 171.522 359.86 172.13C361.267 173.229 362.18 174.84 362.399 176.611C362.618 178.382 362.126 180.167 361.029 181.576L347.178 199.327L326.457 205.274Z" fill="#E4E4E4"/>
</g>
<defs>
<filter id="filter0_d_179_98" x="0" y="0" width="440" height="440" filterUnits="userSpaceOnUse" color-interpolation-filters="sRGB">
<feFlood flood-opacity="0" result="BackgroundImageFix"/>
<feColorMatrix in="SourceAlpha" type="matrix" values="0 0 0 0 0 0 0 0 0 0 0 0 0 0 0 0 0 0 127 0" result="hardAlpha"/>
<feMorphology radius="5" operator="dilate" in="SourceAlpha" result="effect1_dropShadow_179_98"/>
<feOffset dy="5"/>
<feGaussianBlur stdDeviation="7.5"/>
<feComposite in2="hardAlpha" operator="out"/>
<feColorMatrix type="matrix" values="0 0 0 0 0 0 0 0 0 0 0 0 0 0 0 0 0 0 0.25 0"/>
<feBlend mode="normal" in2="BackgroundImageFix" result="effect1_dropShadow_179_98"/>
<feBlend mode="normal" in="SourceGraphic" in2="effect1_dropShadow_179_98" result="shape"/>
</filter>
<clipPath id="clip0_179_98">
<rect width="340" height="237" fill="white" transform="translate(50 65)"/>
</clipPath>
</defs>
</svg>