<svg width="250" height="250" viewBox="0 0 439 440" fill="none" xmlns="http://www.w3.org/2000/svg">
<g filter="url(#filter0_d_179_97)">
<rect x="20" y="15" width="398.961" height="400" rx="30" fill="#141414"/>
</g>
<path d="M165.12 380.678C163.72 380.678 162.46 380.438 161.34 379.958C160.22 379.458 159.34 378.758 158.7 377.858C158.06 376.958 157.74 375.908 157.74 374.708H161.4C161.48 375.608 161.83 376.348 162.45 376.928C163.09 377.508 163.98 377.798 165.12 377.798C166.3 377.798 167.22 377.518 167.88 376.958C168.54 376.378 168.87 375.638 168.87 374.738C168.87 374.038 168.66 373.468 168.24 373.028C167.84 372.588 167.33 372.248 166.71 372.008C166.11 371.768 165.27 371.508 164.19 371.228C162.83 370.868 161.72 370.508 160.86 370.148C160.02 369.768 159.3 369.188 158.7 368.408C158.1 367.628 157.8 366.588 157.8 365.288C157.8 364.088 158.1 363.038 158.7 362.138C159.3 361.238 160.14 360.548 161.22 360.068C162.3 359.588 163.55 359.348 164.97 359.348C166.99 359.348 168.64 359.858 169.92 360.878C171.22 361.878 171.94 363.258 172.08 365.018H168.3C168.24 364.258 167.88 363.608 167.22 363.068C166.56 362.528 165.69 362.258 164.61 362.258C163.63 362.258 162.83 362.508 162.21 363.008C161.59 363.508 161.28 364.228 161.28 365.168C161.28 365.808 161.47 366.338 161.85 366.758C162.25 367.158 162.75 367.478 163.35 367.718C163.95 367.958 164.77 368.218 165.81 368.498C167.19 368.878 168.31 369.258 169.17 369.638C170.05 370.018 170.79 370.608 171.39 371.408C172.01 372.188 172.32 373.238 172.32 374.558C172.32 375.618 172.03 376.618 171.45 377.558C170.89 378.498 170.06 379.258 168.96 379.838C167.88 380.398 166.6 380.678 165.12 380.678ZM180.345 366.728V375.878C180.345 376.498 180.485 376.948 180.765 377.228C181.065 377.488 181.565 377.618 182.265 377.618H184.365V380.468H181.665C180.125 380.468 178.945 380.108 178.125 379.388C177.305 378.668 176.895 377.498 176.895 375.878V366.728H174.945V363.938H176.895V359.828H180.345V363.938H184.365V366.728H180.345ZM186.378 372.128C186.378 370.468 186.718 368.998 187.398 367.718C188.098 366.438 189.038 365.448 190.218 364.748C191.418 364.028 192.738 363.668 194.178 363.668C195.478 363.668 196.608 363.928 197.568 364.448C198.548 364.948 199.328 365.578 199.908 366.338V363.938H203.358V380.468H199.908V378.008C199.328 378.788 198.538 379.438 197.538 379.958C196.538 380.478 195.398 380.738 194.118 380.738C192.698 380.738 191.398 380.378 190.218 379.658C189.038 378.918 188.098 377.898 187.398 376.598C186.718 375.278 186.378 373.788 186.378 372.128ZM199.908 372.188C199.908 371.048 199.668 370.058 199.188 369.218C198.728 368.378 198.118 367.738 197.358 367.298C196.598 366.858 195.778 366.638 194.898 366.638C194.018 366.638 193.198 366.858 192.438 367.298C191.678 367.718 191.058 368.348 190.578 369.188C190.118 370.008 189.888 370.988 189.888 372.128C189.888 373.268 190.118 374.268 190.578 375.128C191.058 375.988 191.678 376.648 192.438 377.108C193.218 377.548 194.038 377.768 194.898 377.768C195.778 377.768 196.598 377.548 197.358 377.108C198.118 376.668 198.728 376.028 199.188 375.188C199.668 374.328 199.908 373.328 199.908 372.188ZM211.27 366.398C211.85 365.598 212.64 364.948 213.64 364.448C214.66 363.928 215.79 363.668 217.03 363.668C218.49 363.668 219.81 364.018 220.99 364.718C222.17 365.418 223.1 366.418 223.78 367.718C224.46 368.998 224.8 370.468 224.8 372.128C224.8 373.788 224.46 375.278 223.78 376.598C223.1 377.898 222.16 378.918 220.96 379.658C219.78 380.378 218.47 380.738 217.03 380.738C215.75 380.738 214.61 380.488 213.61 379.988C212.63 379.488 211.85 378.848 211.27 378.068V380.468H207.85V358.268H211.27V366.398ZM221.32 372.128C221.32 370.988 221.08 370.008 220.6 369.188C220.14 368.348 219.52 367.718 218.74 367.298C217.98 366.858 217.16 366.638 216.28 366.638C215.42 366.638 214.6 366.858 213.82 367.298C213.06 367.738 212.44 368.378 211.96 369.218C211.5 370.058 211.27 371.048 211.27 372.188C211.27 373.328 211.5 374.328 211.96 375.188C212.44 376.028 213.06 376.668 213.82 377.108C214.6 377.548 215.42 377.768 216.28 377.768C217.16 377.768 217.98 377.548 218.74 377.108C219.52 376.648 220.14 375.988 220.6 375.128C221.08 374.268 221.32 373.268 221.32 372.128ZM229.922 361.748C229.302 361.748 228.782 361.538 228.362 361.118C227.942 360.698 227.732 360.178 227.732 359.558C227.732 358.938 227.942 358.418 228.362 357.998C228.782 357.578 229.302 357.368 229.922 357.368C230.522 357.368 231.032 357.578 231.452 357.998C231.872 358.418 232.082 358.938 232.082 359.558C232.082 360.178 231.872 360.698 231.452 361.118C231.032 361.538 230.522 361.748 229.922 361.748ZM231.602 363.938V380.468H228.182V363.938H231.602ZM239.512 358.268V380.468H236.092V358.268H239.512ZM245.742 361.748C245.122 361.748 244.602 361.538 244.182 361.118C243.762 360.698 243.552 360.178 243.552 359.558C243.552 358.938 243.762 358.418 244.182 357.998C244.602 357.578 245.122 357.368 245.742 357.368C246.342 357.368 246.852 357.578 247.272 357.998C247.692 358.418 247.902 358.938 247.902 359.558C247.902 360.178 247.692 360.698 247.272 361.118C246.852 361.538 246.342 361.748 245.742 361.748ZM247.422 363.938V380.468H244.002V363.938H247.422ZM255.902 366.728V375.878C255.902 376.498 256.042 376.948 256.322 377.228C256.622 377.488 257.122 377.618 257.822 377.618H259.922V380.468H257.222C255.682 380.468 254.502 380.108 253.682 379.388C252.862 378.668 252.452 377.498 252.452 375.878V366.728H250.502V363.938H252.452V359.828H255.902V363.938H259.922V366.728H255.902ZM277.954 363.938L267.814 388.238H264.274L267.634 380.198L261.124 363.938H264.934L269.584 376.538L274.414 363.938H277.954Z" fill="white"/>
<g clip-path="url(#clip0_179_97)">
<path d="M318.759 64.8701H121.837C120.145 64.8728 118.524 65.5395 117.327 66.7243C116.131 67.909 115.458 69.5151 115.455 71.1906V202.788C115.457 204.464 116.13 206.071 117.326 207.256C118.523 208.441 120.145 209.107 121.837 209.109H318.759C320.451 209.107 322.074 208.441 323.27 207.256C324.467 206.071 325.14 204.464 325.141 202.788V71.1906C325.139 69.5151 324.465 67.909 323.269 66.7243C322.073 65.5395 320.451 64.8728 318.759 64.8701Z" fill="#E4E4E4"/>
<path d="M317.546 204.752H188.516C170.436 204.7 153.111 197.564 140.327 184.903C127.543 172.242 120.337 155.086 120.284 137.181V72.8225C120.284 71.869 120.667 70.9545 121.347 70.2796C122.027 69.6047 122.95 69.2245 123.913 69.2225H317.546C318.508 69.2245 319.431 69.6047 320.111 70.2795C320.791 70.9544 321.174 71.869 321.174 72.8225V201.159C321.173 202.111 320.79 203.025 320.11 203.698C319.43 204.372 318.507 204.751 317.546 204.752Z" fill="white"/>
<path d="M307.382 87.1171H126.2C126.012 87.113 125.833 87.0361 125.701 86.9027C125.569 86.7693 125.495 86.5902 125.495 86.4036C125.495 86.217 125.569 86.0379 125.701 85.9045C125.833 85.7711 126.012 85.6942 126.2 85.6901H307.382C307.57 85.6942 307.749 85.7711 307.881 85.9045C308.013 86.0379 308.087 86.217 308.087 86.4036C308.087 86.5902 308.013 86.7693 307.881 86.9027C307.749 87.0361 307.57 87.113 307.382 87.1171Z" fill="#CACACA"/>
<path d="M138.534 82.0469C140.866 82.0469 142.756 80.133 142.756 77.772C142.756 75.4111 140.866 73.4972 138.534 73.4972C136.202 73.4972 134.311 75.4111 134.311 77.772C134.311 80.133 136.202 82.0469 138.534 82.0469Z" fill="#246AB3"/>
<path d="M153.12 82.0469C155.453 82.0469 157.343 80.133 157.343 77.772C157.343 75.4111 155.453 73.4972 153.12 73.4972C150.788 73.4972 148.898 75.4111 148.898 77.772C148.898 80.133 150.788 82.0469 153.12 82.0469Z" fill="#246AB3"/>
<path d="M167.707 82.0469C170.039 82.0469 171.93 80.133 171.93 77.772C171.93 75.4111 170.039 73.4972 167.707 73.4972C165.375 73.4972 163.485 75.4111 163.485 77.772C163.485 80.133 165.375 82.0469 167.707 82.0469Z" fill="#246AB3"/>
<path d="M249.587 151.261H176.215C174.888 151.278 173.603 150.796 172.62 149.913C171.637 149.03 171.028 147.81 170.916 146.5C170.87 145.83 170.958 145.158 171.174 144.522C171.391 143.886 171.732 143.298 172.178 142.792C172.623 142.286 173.165 141.872 173.773 141.574C174.38 141.276 175.041 141.099 175.717 141.053C175.833 141.046 175.948 141.042 176.064 141.042H249.587C250.956 141.042 252.268 141.58 253.236 142.538C254.203 143.497 254.747 144.796 254.747 146.151C254.747 147.507 254.203 148.806 253.236 149.764C252.268 150.723 250.956 151.261 249.587 151.261Z" fill="#246AB3"/>
<path d="M249.723 122.644C252.298 122.644 254.385 120.577 254.385 118.028C254.385 115.478 252.298 113.411 249.723 113.411C247.149 113.411 245.062 115.478 245.062 118.028C245.062 120.577 247.149 122.644 249.723 122.644Z" fill="#E6E6E6"/>
<path d="M249.087 120.43C249.007 120.43 248.928 120.412 248.856 120.376C248.784 120.341 248.721 120.289 248.673 120.225L247.401 118.546C247.36 118.492 247.33 118.43 247.312 118.365C247.295 118.299 247.291 118.231 247.301 118.164C247.31 118.097 247.333 118.033 247.368 117.974C247.402 117.916 247.448 117.865 247.503 117.825C247.558 117.784 247.62 117.755 247.686 117.738C247.752 117.721 247.821 117.718 247.889 117.727C247.956 117.737 248.021 117.76 248.08 117.795C248.139 117.829 248.19 117.875 248.231 117.93L249.063 119.028L251.199 115.854C251.275 115.74 251.394 115.661 251.528 115.634C251.663 115.607 251.803 115.634 251.918 115.709C252.033 115.784 252.113 115.901 252.14 116.035C252.167 116.168 252.14 116.307 252.064 116.42L252.062 116.424L249.519 120.202C249.473 120.27 249.411 120.327 249.338 120.366C249.266 120.406 249.185 120.428 249.102 120.43L249.087 120.43Z" fill="white"/>
<path d="M249.723 178.85C252.298 178.85 254.385 176.783 254.385 174.234C254.385 171.684 252.298 169.617 249.723 169.617C247.149 169.617 245.062 171.684 245.062 174.234C245.062 176.783 247.149 178.85 249.723 178.85Z" fill="#E6E6E6"/>
<path d="M249.087 176.636C249.007 176.636 248.928 176.618 248.856 176.582C248.784 176.546 248.721 176.495 248.673 176.431L247.401 174.752C247.36 174.698 247.33 174.636 247.312 174.571C247.295 174.505 247.291 174.437 247.301 174.37C247.31 174.303 247.333 174.239 247.368 174.18C247.402 174.122 247.448 174.071 247.503 174.031C247.558 173.99 247.62 173.961 247.686 173.944C247.752 173.927 247.821 173.924 247.889 173.933C247.956 173.943 248.021 173.966 248.08 174.001C248.139 174.035 248.19 174.081 248.231 174.136L249.063 175.234L251.199 172.06C251.275 171.946 251.394 171.867 251.528 171.84C251.663 171.813 251.803 171.84 251.918 171.915C252.033 171.99 252.113 172.107 252.14 172.241C252.167 172.374 252.14 172.513 252.064 172.626L252.062 172.629L249.519 176.408C249.473 176.476 249.411 176.532 249.338 176.572C249.266 176.612 249.185 176.634 249.102 176.636L249.087 176.636Z" fill="white"/>
<path d="M212.181 123.158H176.215C174.888 123.175 173.603 122.693 172.62 121.81C171.637 120.927 171.028 119.707 170.916 118.397C170.87 117.728 170.958 117.055 171.174 116.419C171.391 115.783 171.732 115.195 172.178 114.689C172.623 114.183 173.165 113.77 173.773 113.471C174.38 113.173 175.041 112.996 175.717 112.951C175.833 112.943 175.948 112.939 176.064 112.939H212.181C213.549 112.939 214.861 113.477 215.829 114.435C216.797 115.394 217.34 116.693 217.34 118.048C217.34 119.404 216.797 120.703 215.829 121.662C214.861 122.62 213.549 123.158 212.181 123.158Z" fill="#246AB3"/>
<path d="M249.588 123.371H176.064C174.638 123.371 173.271 122.81 172.263 121.812C171.256 120.814 170.689 119.46 170.689 118.048C170.689 116.637 171.256 115.283 172.263 114.285C173.271 113.287 174.638 112.726 176.064 112.726H249.588C251.013 112.726 252.38 113.287 253.388 114.285C254.396 115.283 254.962 116.637 254.962 118.048C254.962 119.46 254.396 120.814 253.388 121.812C252.38 122.81 251.013 123.371 249.588 123.371ZM176.064 113.578C174.867 113.578 173.718 114.049 172.872 114.887C172.025 115.726 171.549 116.863 171.549 118.048C171.549 119.234 172.025 120.371 172.872 121.21C173.718 122.048 174.867 122.519 176.064 122.519H249.588C250.785 122.519 251.933 122.048 252.78 121.21C253.626 120.371 254.102 119.234 254.102 118.048C254.102 116.863 253.626 115.726 252.78 114.887C251.933 114.049 250.785 113.578 249.588 113.578H176.064Z" fill="#3F3D56"/>
<path d="M249.588 151.474H176.064C174.638 151.474 173.271 150.913 172.263 149.915C171.256 148.917 170.689 147.563 170.689 146.151C170.689 144.74 171.256 143.386 172.263 142.388C173.271 141.39 174.638 140.829 176.064 140.829H249.588C251.013 140.829 252.38 141.39 253.388 142.388C254.396 143.386 254.962 144.74 254.962 146.151C254.962 147.563 254.396 148.917 253.388 149.915C252.38 150.913 251.013 151.474 249.588 151.474ZM176.064 141.68C174.867 141.68 173.718 142.152 172.872 142.99C172.025 143.828 171.549 144.966 171.549 146.151C171.549 147.337 172.025 148.474 172.872 149.313C173.718 150.151 174.867 150.622 176.064 150.622H249.588C250.785 150.622 251.933 150.151 252.78 149.313C253.626 148.474 254.102 147.337 254.102 146.151C254.102 144.966 253.626 143.828 252.78 142.99C251.933 142.152 250.785 141.68 249.588 141.68H176.064Z" fill="#3F3D56"/>
<path d="M196.702 179.364H176.215C174.888 179.381 173.603 178.899 172.62 178.016C171.637 177.132 171.028 175.913 170.916 174.603C170.87 173.933 170.958 173.261 171.174 172.625C171.391 171.989 171.732 171.401 172.178 170.895C172.623 170.389 173.165 169.975 173.773 169.677C174.38 169.379 175.041 169.202 175.717 169.156C175.833 169.149 175.948 169.145 176.064 169.145H196.702C198.07 169.145 199.383 169.683 200.35 170.641C201.318 171.599 201.862 172.899 201.862 174.254C201.862 175.609 201.318 176.909 200.35 177.867C199.383 178.826 198.07 179.364 196.702 179.364Z" fill="#246AB3"/>
<path d="M249.588 179.577H176.064C174.638 179.577 173.271 179.016 172.263 178.018C171.256 177.02 170.689 175.666 170.689 174.254C170.689 172.843 171.256 171.489 172.263 170.491C173.271 169.493 174.638 168.932 176.064 168.932H249.588C251.013 168.932 252.38 169.493 253.388 170.491C254.396 171.489 254.962 172.843 254.962 174.254C254.962 175.666 254.396 177.02 253.388 178.018C252.38 179.016 251.013 179.577 249.588 179.577ZM176.064 169.783C174.867 169.783 173.718 170.254 172.872 171.093C172.025 171.931 171.549 173.069 171.549 174.254C171.549 175.44 172.025 176.577 172.872 177.416C173.718 178.254 174.867 178.725 176.064 178.725H249.588C250.785 178.725 251.933 178.254 252.78 177.416C253.626 176.577 254.102 175.44 254.102 174.254C254.102 173.069 253.626 171.931 252.78 171.093C251.933 170.254 250.785 169.783 249.588 169.783H176.064Z" fill="#474747"/>
<path d="M189.823 107.45H172.625C172.168 107.45 171.731 107.271 171.408 106.952C171.086 106.632 170.905 106.199 170.905 105.747C170.905 105.295 171.086 104.862 171.408 104.543C171.731 104.223 172.168 104.044 172.625 104.044H189.823C190.279 104.044 190.717 104.223 191.039 104.543C191.362 104.862 191.543 105.295 191.543 105.747C191.543 106.199 191.362 106.632 191.039 106.952C190.717 107.271 190.279 107.45 189.823 107.45Z" fill="#CCCCCC"/>
<path d="M189.823 135.553H172.625C172.168 135.553 171.731 135.374 171.408 135.054C171.086 134.735 170.905 134.302 170.905 133.85C170.905 133.398 171.086 132.965 171.408 132.646C171.731 132.326 172.168 132.147 172.625 132.147H189.823C190.279 132.147 190.717 132.326 191.039 132.646C191.362 132.965 191.543 133.398 191.543 133.85C191.543 134.302 191.362 134.735 191.039 135.054C190.717 135.374 190.279 135.553 189.823 135.553Z" fill="#CCCCCC"/>
<path d="M189.823 163.656H172.625C172.168 163.656 171.731 163.477 171.408 163.157C171.086 162.838 170.905 162.405 170.905 161.953C170.905 161.501 171.086 161.068 171.408 160.749C171.731 160.429 172.168 160.25 172.625 160.25H189.823C190.279 160.25 190.717 160.429 191.039 160.749C191.362 161.068 191.543 161.501 191.543 161.953C191.543 162.405 191.362 162.838 191.039 163.157C190.717 163.477 190.279 163.656 189.823 163.656Z" fill="#CCCCCC"/>
<path d="M164.03 107.817C165.062 107.817 165.899 106.97 165.899 105.925C165.899 104.88 165.062 104.033 164.03 104.033C162.998 104.033 162.161 104.88 162.161 105.925C162.161 106.97 162.998 107.817 164.03 107.817Z" fill="#474747"/>
<path d="M164.03 135.92C165.062 135.92 165.899 135.073 165.899 134.028C165.899 132.983 165.062 132.136 164.03 132.136C162.998 132.136 162.161 132.983 162.161 134.028C162.161 135.073 162.998 135.92 164.03 135.92Z" fill="#474747"/>
<path d="M164.03 164.023C165.062 164.023 165.899 163.176 165.899 162.131C165.899 161.086 165.062 160.239 164.03 160.239C162.998 160.239 162.161 161.086 162.161 162.131C162.161 163.176 162.998 164.023 164.03 164.023Z" fill="#474747"/>
<path d="M287.179 296.588L282.922 296.587L280.897 280.326L287.18 280.326L287.179 296.588Z" fill="#FFB6B6"/>
<path d="M287.329 300.986L274.238 300.985V300.821C274.238 299.483 274.775 298.2 275.73 297.253C276.686 296.307 277.982 295.775 279.333 295.775H279.334L281.725 293.979L286.186 295.776L287.329 295.776L287.329 300.986Z" fill="#474747"/>
<path d="M303.948 296.588L299.691 296.587L297.666 280.326L303.949 280.326L303.948 296.588Z" fill="#FFB6B6"/>
<path d="M304.097 300.986L291.006 300.985V300.821C291.006 299.483 291.543 298.2 292.499 297.253C293.454 296.307 294.75 295.775 296.102 295.775H296.102L298.493 293.979L302.955 295.776L304.098 295.776L304.097 300.986Z" fill="#474747"/>
<path d="M272.53 194.74L269.52 204.959L273.065 248.24C273.065 248.24 271.24 250.946 272.53 250.946C273.819 250.946 275.473 251.546 274.431 253.162C273.389 254.778 276.951 260.58 276.951 260.58L281.989 291.397L288.408 291.303C288.408 291.303 291.671 289.503 289.84 287.682C288.008 285.861 286.718 285.861 288.438 284.158C290.158 282.455 290.158 282.968 290.158 281.647C290.158 280.326 291.881 264.182 287.795 257.99L289.026 232.742L291.926 257.507L297.897 290.545L304.081 290.495C304.081 290.495 306.937 287.768 306.932 285.75C306.927 283.732 305.167 283.565 306.477 282.371C307.786 281.178 307.786 262.841 303.917 252.649L303.946 207.058C303.946 207.058 307.748 196.825 303.898 192.802C300.047 188.778 272.53 194.74 272.53 194.74Z" fill="#474747"/>
<path d="M311.286 176.91L313.879 150.319C313.985 149.192 313.64 148.069 312.918 147.192C312.195 146.315 311.154 145.754 310.017 145.631C308.87 145.506 307.719 145.838 306.818 146.554C305.917 147.27 305.341 148.311 305.215 149.448C305.207 149.524 305.2 149.599 305.196 149.676L303.359 177.379L301.525 194.166C300.778 194.388 300.118 194.833 299.635 195.44C299.152 196.047 298.87 196.786 298.826 197.558C298.782 198.329 298.979 199.095 299.39 199.752C299.801 200.409 300.406 200.924 301.123 201.228C301.84 201.533 302.635 201.611 303.398 201.453C304.162 201.294 304.858 200.907 305.391 200.343C305.925 199.779 306.27 199.066 306.381 198.302C306.491 197.537 306.361 196.757 306.008 196.068L311.286 176.91Z" fill="#FFB6B6"/>
<path d="M301.566 136.84L310.906 138C310.906 138 317.904 151.063 316.463 152.171C315.023 153.28 308.514 160.196 303.716 157.025C298.917 153.855 301.566 136.84 301.566 136.84Z" fill="#474747"/>
<path d="M285.482 124.307C290.957 124.307 295.395 119.912 295.395 114.49C295.395 109.068 290.957 104.673 285.482 104.673C280.007 104.673 275.569 109.068 275.569 114.49C275.569 119.912 280.007 124.307 285.482 124.307Z" fill="#FFB6B6"/>
<path d="M289.312 123.502C286.467 123.41 286.209 122.666 283.364 122.573C282.458 122.544 281.39 122.421 280.952 121.635C280.824 121.341 280.767 121.021 280.786 120.701C280.804 120.382 280.897 120.07 281.058 119.792C281.382 119.24 281.675 118.67 281.934 118.085C282.09 117.626 282.131 117.137 282.053 116.659C281.976 116.181 281.782 115.729 281.488 115.341C281.194 114.954 280.81 114.644 280.368 114.437C279.926 114.23 279.439 114.133 278.951 114.154C278.085 114.191 277.272 114.594 276.409 114.668C275.225 114.769 272.607 110.898 273.152 109.852C273.683 108.834 274.75 108.066 274.918 106.933C275.028 106.191 274.719 105.455 274.677 104.707C274.614 103.597 277.453 106.098 276.933 105.114C275.658 102.699 287.677 99.7057 289.656 102.73C290.395 103.861 291.713 103.784 292.888 104.463C293.658 104.908 295.602 106.443 296.044 107.399C296.45 108.376 296.642 109.426 296.607 110.482C296.625 115.39 295.87 119.904 291.872 122.805" fill="#474747"/>
<path d="M282.849 127.037L291.018 125.334L297.293 128.323C297.293 128.323 312.135 134.235 312.084 140.065C312.034 145.895 309.425 158.669 306.43 159.946C303.434 161.224 309.024 165.482 307.304 168.037C305.584 170.591 302.979 188.045 302.979 188.045C302.979 188.045 309.07 200.061 303.917 202.404C298.764 204.748 276.989 206.939 275.593 203.881C274.197 200.823 274.184 202.492 270.966 201.658C267.747 200.823 270.969 189.125 273.873 187.949C276.777 186.772 278.497 161.224 278.497 161.224L273.873 141.358L280.927 131.525L282.849 127.037Z" fill="#474747"/>
<path d="M277.127 181.642L284.507 155.946C284.817 154.857 284.681 153.691 284.13 152.699C283.579 151.708 282.656 150.971 281.561 150.647C280.454 150.32 279.262 150.442 278.246 150.985C277.23 151.529 276.474 152.45 276.144 153.546C276.122 153.619 276.102 153.693 276.083 153.767L269.243 180.691L264.39 196.877C263.615 196.963 262.885 197.283 262.299 197.794C261.714 198.305 261.302 198.982 261.118 199.733C260.935 200.484 260.989 201.272 261.274 201.992C261.559 202.711 262.061 203.326 262.711 203.753C263.362 204.18 264.129 204.398 264.909 204.379C265.689 204.359 266.444 204.102 267.071 203.642C267.698 203.183 268.167 202.543 268.415 201.81C268.662 201.078 268.676 200.287 268.454 199.546L277.127 181.642Z" fill="#FFB6B6"/>
<path d="M274.844 140.494L283.821 143.299C283.821 143.299 289.66 151.789 287.474 153.001C285.288 154.212 284.468 153.956 285.591 156.092C286.714 158.229 288.332 157.395 286.714 158.229C285.095 159.063 277.436 164.707 273.292 160.733C269.148 156.759 274.844 140.494 274.844 140.494Z" fill="#474747"/>
<path d="M249.723 154.822C254.57 154.822 258.5 150.931 258.5 146.131C258.5 141.331 254.57 137.439 249.723 137.439C244.876 137.439 240.947 141.331 240.947 146.131C240.947 150.931 244.876 154.822 249.723 154.822Z" fill="#246AB3"/>
<path d="M248.526 150.654C248.375 150.654 248.225 150.619 248.09 150.552C247.954 150.485 247.836 150.388 247.745 150.267L245.351 147.106C245.196 146.901 245.129 146.643 245.165 146.389C245.202 146.135 245.339 145.906 245.546 145.752C245.753 145.599 246.014 145.533 246.27 145.569C246.526 145.605 246.758 145.741 246.913 145.946L248.479 148.014L252.503 142.038C252.645 141.824 252.868 141.675 253.122 141.624C253.376 141.573 253.639 141.623 253.855 141.765C254.071 141.906 254.222 142.127 254.273 142.378C254.325 142.629 254.274 142.891 254.131 143.104L254.127 143.11L249.338 150.224C249.252 150.352 249.135 150.459 248.999 150.533C248.862 150.608 248.709 150.65 248.553 150.654L248.526 150.654Z" fill="white"/>
</g>
<defs>
<filter id="filter0_d_179_97" x="0" y="0" width="438.961" height="440" filterUnits="userSpaceOnUse" color-interpolation-filters="sRGB">
<feFlood flood-opacity="0" result="BackgroundImageFix"/>
<feColorMatrix in="SourceAlpha" type="matrix" values="0 0 0 0 0 0 0 0 0 0 0 0 0 0 0 0 0 0 127 0" result="hardAlpha"/>
<feMorphology radius="5" operator="dilate" in="SourceAlpha" result="effect1_dropShadow_179_97"/>
<feOffset dy="5"/>
<feGaussianBlur stdDeviation="7.5"/>
<feComposite in2="hardAlpha" operator="out"/>
<feColorMatrix type="matrix" values="0 0 0 0 0 0 0 0 0 0 0 0 0 0 0 0 0 0 0.25 0"/>
<feBlend mode="normal" in2="BackgroundImageFix" result="effect1_dropShadow_179_97"/>
<feBlend mode="normal" in="SourceGraphic" in2="effect1_dropShadow_179_97" result="shape"/>
</filter>
<clipPath id="clip0_179_97">
<rect width="210" height="237" fill="white" transform="translate(115 65)"/>
</clipPath>
</defs>
</svg>