<svg width="250" height="250" viewBox="0 0 440 440" fill="none" xmlns="http://www.w3.org/2000/svg">
<g filter="url(#filter0_d_179_96)">
<rect x="20" y="15" width="400" height="400" rx="30" fill="#141414"/>
</g>
<path d="M196.72 359.618V362.408H191.17V380.468H187.75V362.408H182.17V359.618H196.72ZM203.604 366.338C204.104 365.498 204.764 364.848 205.584 364.388C206.424 363.908 207.414 363.668 208.554 363.668V367.208H207.684C206.344 367.208 205.324 367.548 204.624 368.228C203.944 368.908 203.604 370.088 203.604 371.768V380.468H200.184V363.938H203.604V366.338ZM226.667 363.938V380.468H223.247V378.518C222.707 379.198 221.997 379.738 221.117 380.138C220.257 380.518 219.337 380.708 218.357 380.708C217.057 380.708 215.887 380.438 214.847 379.898C213.827 379.358 213.017 378.558 212.417 377.498C211.837 376.438 211.547 375.158 211.547 373.658V363.938H214.937V373.148C214.937 374.628 215.307 375.768 216.047 376.568C216.787 377.348 217.797 377.738 219.077 377.738C220.357 377.738 221.367 377.348 222.107 376.568C222.867 375.768 223.247 374.628 223.247 373.148V363.938H226.667ZM237.18 380.738C235.88 380.738 234.71 380.508 233.67 380.048C232.65 379.568 231.84 378.928 231.24 378.128C230.64 377.308 230.32 376.398 230.28 375.398H233.82C233.88 376.098 234.21 376.688 234.81 377.168C235.43 377.628 236.2 377.858 237.12 377.858C238.08 377.858 238.82 377.678 239.34 377.318C239.88 376.938 240.15 376.458 240.15 375.878C240.15 375.258 239.85 374.798 239.25 374.498C238.67 374.198 237.74 373.868 236.46 373.508C235.22 373.168 234.21 372.838 233.43 372.518C232.65 372.198 231.97 371.708 231.39 371.048C230.83 370.388 230.55 369.518 230.55 368.438C230.55 367.558 230.81 366.758 231.33 366.038C231.85 365.298 232.59 364.718 233.55 364.298C234.53 363.878 235.65 363.668 236.91 363.668C238.79 363.668 240.3 364.148 241.44 365.108C242.6 366.048 243.22 367.338 243.3 368.978H239.88C239.82 368.238 239.52 367.648 238.98 367.208C238.44 366.768 237.71 366.548 236.79 366.548C235.89 366.548 235.2 366.718 234.72 367.058C234.24 367.398 234 367.848 234 368.408C234 368.848 234.16 369.218 234.48 369.518C234.8 369.818 235.19 370.058 235.65 370.238C236.11 370.398 236.79 370.608 237.69 370.868C238.89 371.188 239.87 371.518 240.63 371.858C241.41 372.178 242.08 372.658 242.64 373.298C243.2 373.938 243.49 374.788 243.51 375.848C243.51 376.788 243.25 377.628 242.73 378.368C242.21 379.108 241.47 379.688 240.51 380.108C239.57 380.528 238.46 380.738 237.18 380.738ZM251.195 366.728V375.878C251.195 376.498 251.335 376.948 251.615 377.228C251.915 377.488 252.415 377.618 253.115 377.618H255.215V380.468H252.515C250.975 380.468 249.795 380.108 248.975 379.388C248.155 378.668 247.745 377.498 247.745 375.878V366.728H245.795V363.938H247.745V359.828H251.195V363.938H255.215V366.728H251.195Z" fill="white"/>
<g clip-path="url(#clip0_179_96)">
<path d="M166.778 229.52C164.217 229.511 161.667 229.183 159.189 228.542L158.7 228.407L158.247 228.181C141.861 219.997 128.038 209.187 117.16 196.051C108.155 185.114 101.135 172.695 96.4145 159.354C90.7695 143.382 88.0538 126.529 88.3968 109.599C88.4037 109.244 88.4096 108.969 88.4096 108.78C88.4096 100.55 92.9952 93.3295 100.092 90.3837C105.523 88.1292 154.839 67.9507 158.402 66.4928C165.113 63.1433 172.272 65.939 173.417 66.4278C175.987 67.4745 221.576 86.0498 231.428 90.7231C241.581 95.5395 244.29 104.192 244.29 108.545C244.29 128.254 240.864 146.673 234.106 163.291C228.649 176.742 220.914 189.16 211.238 200.004C192.57 220.932 173.898 228.351 173.718 228.416C171.486 229.181 169.138 229.554 166.778 229.52ZM162.387 218.684C164.006 219.046 167.733 219.588 170.162 218.705C173.248 217.584 188.877 209.511 203.482 193.138C223.66 170.517 233.899 142.08 233.914 108.618C233.878 107.94 233.394 103.105 226.967 100.056C217.306 95.4729 169.92 76.1708 169.442 75.9763L169.311 75.921C168.318 75.5064 165.158 74.6332 162.979 75.7705L162.543 75.9731C162.015 76.1892 109.666 97.6079 104.083 99.9253C100.177 101.546 98.7859 105.562 98.7859 108.78C98.7859 109.015 98.7798 109.357 98.7712 109.799C98.325 132.696 103.644 189.036 162.387 218.684Z" fill="#E4E4E4"/>
<path d="M160.572 71.1922C160.572 71.1922 107.747 92.8053 102.088 95.1545C96.4279 97.5038 93.598 103.142 93.598 108.78C93.598 114.418 89.3531 187.989 160.572 223.561C160.572 223.561 167.036 225.342 171.94 223.561C176.844 221.779 239.102 191.709 239.102 108.545C239.102 108.545 239.102 100.088 229.198 95.3895C219.293 90.691 171.405 71.1922 171.405 71.1922C171.405 71.1922 165.525 68.6081 160.572 71.1922Z" fill="#246AB3"/>
<path opacity="0.1" d="M166.232 88.1068V203.405C166.232 203.405 112.936 177.848 113.407 110.66L166.232 88.1068Z" fill="black"/>
<path d="M167.998 168.904C167.197 169.693 165.902 169.666 165.134 168.844L150.46 153.141C149.734 152.364 149.742 151.156 150.479 150.389L157.232 143.361C158.036 142.525 159.38 142.545 160.158 143.405L165.128 148.903C165.894 149.75 167.213 149.785 168.023 148.979L192.887 124.229C193.679 123.44 194.963 123.454 195.738 124.259L202.944 131.743C203.704 132.533 203.687 133.787 202.906 134.556L167.998 168.904Z" fill="white"/>
<path d="M311.18 295.359L317.477 295.359L320.473 271.162L311.178 271.163L311.18 295.359Z" fill="#FFB8B8"/>
<path d="M309.573 293.311L321.975 293.311H321.975C324.071 293.311 326.082 294.14 327.564 295.617C329.046 297.093 329.879 299.096 329.879 301.184V301.44L309.574 301.44L309.573 293.311Z" fill="#474747"/>
<path d="M332.353 295.359L338.65 295.359L341.646 271.162L332.352 271.163L332.353 295.359Z" fill="#FFB8B8"/>
<path d="M330.746 293.311L343.148 293.311H343.149C345.245 293.311 347.255 294.14 348.737 295.617C350.219 297.093 351.052 299.096 351.052 301.184V301.44L330.747 301.44L330.746 293.311Z" fill="#474747"/>
<path d="M321.077 210.387L322.588 287.151L310.368 286.396L301.891 237.502L299.213 204.164L321.077 210.387Z" fill="#474747"/>
<path d="M342.049 197.497L343.761 288.368L329.51 287.962L326.432 233.945L321.077 214.387L299.214 204.164L302.783 179.717L334.91 179.272L342.049 197.497Z" fill="#474747"/>
<path d="M317.479 116.154C323.514 116.154 328.406 111.28 328.406 105.268C328.406 99.2553 323.514 94.3813 317.479 94.3813C311.443 94.3813 306.551 99.2553 306.551 105.268C306.551 111.28 311.443 116.154 317.479 116.154Z" fill="#FFB8B8"/>
<path d="M326.542 120.74L328.216 123.266L332.679 135.712L329.109 184.161L308.137 184.606L305.46 129.044L311.069 122.061L326.542 120.74Z" fill="#E4E4E4"/>
<path d="M296.982 130.378L293.413 129.933C293.413 129.933 292.52 130.378 292.074 133.489C291.628 136.601 286.274 164.159 286.274 164.159L293.413 197.941L301.444 187.273L296.536 168.604L301.444 149.935L296.982 130.378Z" fill="#474747"/>
<path d="M342.495 129.933H345.172L351.865 165.937L345.618 193.941L339.371 183.717L341.156 172.605L340.264 162.826L337.141 157.047L342.495 129.933Z" fill="#474747"/>
<path d="M323.936 105.268L321.949 104.773C321.949 104.773 320.459 96.3607 316.982 97.3504C313.505 98.34 304.564 99.3297 304.564 95.3711C304.564 91.4125 313.008 87.9487 317.975 88.4435C322.943 88.9383 329.287 90.5799 330.89 97.8452C333.461 109.492 325.586 112.434 325.586 112.434L325.717 112.01C326.081 110.832 326.107 109.577 325.792 108.385C325.478 107.194 324.835 106.114 323.936 105.268Z" fill="#474747"/>
<path d="M293.859 129.933L308.137 124.155L311.484 121.71L321.523 165.937L326.209 120.376L344.726 129.933L338.479 160.159L337.587 171.716L340.264 181.05C340.264 181.05 349.634 187.718 346.511 194.83C343.387 201.942 339.818 202.386 339.818 202.386C339.818 202.386 324.647 188.162 323.754 184.606C322.862 181.05 321.523 174.827 321.523 174.827C321.523 174.827 313.938 203.275 305.014 202.831C296.09 202.386 296.09 193.052 296.09 193.052L298.321 183.273L301.891 173.049L300.106 156.158L293.859 129.933Z" fill="#474747"/>
</g>
<defs>
<filter id="filter0_d_179_96" x="0" y="0" width="440" height="440" filterUnits="userSpaceOnUse" color-interpolation-filters="sRGB">
<feFlood flood-opacity="0" result="BackgroundImageFix"/>
<feColorMatrix in="SourceAlpha" type="matrix" values="0 0 0 0 0 0 0 0 0 0 0 0 0 0 0 0 0 0 127 0" result="hardAlpha"/>
<feMorphology radius="5" operator="dilate" in="SourceAlpha" result="effect1_dropShadow_179_96"/>
<feOffset dy="5"/>
<feGaussianBlur stdDeviation="7.5"/>
<feComposite in2="hardAlpha" operator="out"/>
<feColorMatrix type="matrix" values="0 0 0 0 0 0 0 0 0 0 0 0 0 0 0 0 0 0 0.25 0"/>
<feBlend mode="normal" in2="BackgroundImageFix" result="effect1_dropShadow_179_96"/>
<feBlend mode="normal" in="SourceGraphic" in2="effect1_dropShadow_179_96" result="shape"/>
</filter>
<clipPath id="clip0_179_96">
<rect width="264" height="237" fill="white" transform="translate(88 65)"/>
</clipPath>
</defs>
</svg>