<svg width="309" height="72" viewBox="0 0 309 72" fill="none" xmlns="http://www.w3.org/2000/svg">
<path d="M39.1146 47.0115C38.4272 47.0115 37.7679 46.7345 37.2818 46.2415C36.7957 45.7485 36.5226 45.0799 36.5226 44.3827V16.2637C36.5212 16.1027 36.4653 15.9471 36.3644 15.8229C36.2634 15.6986 36.1235 15.6133 35.9679 15.5812C35.8124 15.549 35.6507 15.572 35.5098 15.6462C35.369 15.7205 35.2575 15.8415 35.1941 15.9891L22.8262 45.6458C22.6608 46.0478 22.3814 46.3909 22.0234 46.6315C21.6653 46.8721 21.2449 46.9992 20.8154 46.9969C20.3869 46.9971 19.9677 46.8695 19.6102 46.6299C19.2526 46.3904 18.9725 46.0494 18.8046 45.6495L6.30671 15.7291C6.24328 15.5816 6.13184 15.4605 5.99099 15.3863C5.85015 15.312 5.68844 15.2891 5.5329 15.3212C5.37736 15.3534 5.23742 15.4387 5.13646 15.5629C5.0355 15.6871 4.97964 15.8428 4.97822 16.0037V44.4742C4.97822 45.1433 4.71617 45.7849 4.24971 46.258C3.78325 46.7311 3.15059 46.9969 2.49091 46.9969C2.16397 46.9973 1.84015 46.9324 1.53796 46.8059C1.23577 46.6793 0.961141 46.4936 0.729791 46.2593C0.498441 46.025 0.314903 45.7467 0.189678 45.4404C0.0644538 45.1341 -3.4435e-07 44.8058 0 44.4742V10.3616C-2.01843e-07 9.79637 0.109836 9.23665 0.323231 8.71446C0.536626 8.19227 0.849396 7.71785 1.24366 7.31832C1.63793 6.91879 2.10597 6.60198 2.62102 6.38599C3.13607 6.17001 3.68804 6.05909 4.24539 6.05957C5.08078 6.05885 5.89772 6.30875 6.5934 6.77783C7.28908 7.2469 7.83242 7.9142 8.15504 8.69573L19.4833 36.0385C19.5898 36.2971 19.7694 36.5179 19.9993 36.6732C20.2293 36.8285 20.4994 36.9114 20.7757 36.9114C21.052 36.9114 21.3221 36.8285 21.552 36.6732C21.782 36.5179 21.9615 36.2971 22.0681 36.0385L33.3494 8.76163C33.6818 7.96108 34.2395 7.27772 34.9529 6.7971C35.6663 6.31648 36.5037 6.05993 37.3601 6.05957C38.5091 6.05957 39.6109 6.52246 40.4233 7.34642C41.2358 8.17038 41.6922 9.28791 41.6922 10.4532V44.368C41.6922 44.7136 41.625 45.0557 41.4945 45.3749C41.364 45.6941 41.1728 45.984 40.9317 46.2282C40.6906 46.4724 40.4045 46.6659 40.0896 46.7978C39.7747 46.9297 39.4372 46.9973 39.0966 46.9969L39.1146 47.0115Z" fill="white"/>
<path d="M66.3306 47.0115H49.2299C48.6181 47.0115 48.0314 46.765 47.5987 46.3263C47.1661 45.8875 46.9231 45.2924 46.9231 44.6719V8.3955C46.9231 7.775 47.1661 7.17992 47.5987 6.74117C48.0314 6.30241 48.6181 6.05591 49.2299 6.05591H65.4209C66.0327 6.05591 66.6194 6.30241 67.052 6.74117C67.4846 7.17992 67.7277 7.775 67.7277 8.3955V8.42113C67.7277 9.04163 67.4846 9.63671 67.052 10.0755C66.6194 10.5142 66.0327 10.7607 65.4209 10.7607H54.4464C53.8342 10.7607 53.2471 11.0071 52.8139 11.4458C52.3808 11.8844 52.1369 12.4795 52.136 13.1003V21.5214C52.1369 22.1422 52.3808 22.7373 52.8139 23.1759C53.2471 23.6146 53.8342 23.8609 54.4464 23.8609H64.2729C64.8847 23.8609 65.4714 24.1074 65.904 24.5462C66.3366 24.985 66.5797 25.58 66.5797 26.2005C66.5797 26.821 66.3366 27.4161 65.904 27.8549C65.4714 28.2936 64.8847 28.5401 64.2729 28.5401H54.4464C53.8342 28.5401 53.2471 28.7865 52.8139 29.2252C52.3808 29.6638 52.1369 30.2589 52.136 30.8797V39.9927C52.1369 40.6136 52.3808 41.2087 52.8139 41.6473C53.2471 42.086 53.8342 42.3323 54.4464 42.3323H66.3306C66.9427 42.3323 67.5298 42.5787 67.963 43.0174C68.3962 43.456 68.64 44.0511 68.641 44.6719C68.64 45.2928 68.3962 45.8878 67.963 46.3265C67.5298 46.7651 66.9427 47.0115 66.3306 47.0115Z" fill="white"/>
<path d="M100.044 10.7644H93.0158C92.4001 10.7644 91.8097 11.0124 91.3744 11.4539C90.9391 11.8954 90.6945 12.4942 90.6945 13.1186V44.6609C90.6945 44.9699 90.6345 45.2759 90.5178 45.5613C90.4011 45.8467 90.23 46.106 90.0144 46.3243C89.7988 46.5427 89.5429 46.7157 89.2613 46.8336C88.9797 46.9516 88.6779 47.012 88.3733 47.0115H87.7704C87.4657 47.012 87.164 46.9516 86.8824 46.8336C86.6008 46.7157 86.3448 46.5427 86.1293 46.3243C85.9137 46.106 85.7426 45.8467 85.6259 45.5613C85.5092 45.2759 85.4492 44.9699 85.4492 44.6609V13.1186C85.4492 12.4949 85.2051 11.8966 84.7706 11.4552C84.336 11.0138 83.7465 10.7654 83.1315 10.7644H76.175C75.5594 10.7644 74.969 10.5163 74.5336 10.0748C74.0983 9.63334 73.8538 9.03453 73.8538 8.41015C73.8538 8.10116 73.9138 7.7952 74.0305 7.50978C74.1472 7.22436 74.3183 6.96506 74.5339 6.74674C74.7495 6.52842 75.0054 6.35537 75.287 6.23746C75.5686 6.11954 75.8703 6.05909 76.175 6.05957H100.044C100.349 6.05909 100.651 6.11954 100.933 6.23746C101.214 6.35537 101.47 6.52842 101.686 6.74674C101.901 6.96506 102.072 7.22436 102.189 7.50978C102.306 7.7952 102.366 8.10116 102.366 8.41015C102.366 9.03453 102.121 9.63334 101.686 10.0748C101.251 10.5163 100.66 10.7644 100.044 10.7644Z" fill="white"/>
<path d="M220.771 47.0115H220.735C220.19 47.0124 219.659 46.8441 219.211 46.5292C218.764 46.2144 218.423 45.7681 218.233 45.2504L215.41 37.5616C215.22 37.044 214.879 36.5977 214.432 36.2828C213.984 35.968 213.453 35.7996 212.908 35.8005H199.836C199.282 35.7984 198.741 35.9714 198.288 36.2956C197.835 36.6197 197.493 37.0789 197.309 37.6092L194.678 45.1992C194.494 45.7298 194.152 46.1893 193.699 46.5135C193.247 46.8377 192.705 47.0105 192.151 47.0079C191.719 47.0076 191.294 46.9013 190.912 46.6979C190.53 46.4946 190.203 46.2003 189.957 45.8403C189.712 45.4803 189.556 45.0653 189.504 44.631C189.452 44.1967 189.504 43.7559 189.656 43.3465L202.652 8.70671C202.945 7.92934 203.463 7.26036 204.139 6.78832C204.814 6.31628 205.615 6.06344 206.436 6.06323C207.256 6.06344 208.057 6.31628 208.733 6.78832C209.408 7.26036 209.926 7.92934 210.219 8.70671L223.215 43.3465C223.367 43.7521 223.42 44.1887 223.371 44.6195C223.321 45.0503 223.17 45.4628 222.93 45.8221C222.691 46.1814 222.37 46.477 221.994 46.684C221.618 46.891 221.199 47.0033 220.771 47.0115ZM212.403 29.0014L207.894 15.7767C207.785 15.4536 207.579 15.1732 207.306 14.9746C207.032 14.776 206.704 14.6692 206.367 14.6692C206.03 14.6692 205.702 14.776 205.428 14.9746C205.154 15.1732 204.949 15.4536 204.84 15.7767L200.331 29.0014C200.247 29.2483 200.223 29.512 200.259 29.7705C200.296 30.0289 200.393 30.2747 200.543 30.4875C200.692 30.7002 200.889 30.8737 201.118 30.9935C201.347 31.1133 201.601 31.176 201.858 31.1763H210.883C211.14 31.1756 211.394 31.1126 211.622 30.9926C211.85 30.8725 212.047 30.6988 212.196 30.486C212.344 30.2732 212.441 30.0275 212.477 29.7692C212.513 29.511 212.488 29.2478 212.403 29.0014Z" fill="white"/>
<path d="M254.828 10.7644H247.817C247.202 10.7644 246.611 11.0124 246.176 11.4539C245.741 11.8954 245.496 12.4942 245.496 13.1186V44.6609C245.496 44.9699 245.436 45.2759 245.319 45.5613C245.203 45.8467 245.032 46.106 244.816 46.3243C244.6 46.5427 244.344 46.7157 244.063 46.8336C243.781 46.9516 243.479 47.012 243.175 47.0115H242.576C242.271 47.012 241.969 46.9516 241.687 46.8336C241.406 46.7157 241.15 46.5427 240.934 46.3243C240.719 46.106 240.548 45.8467 240.431 45.5613C240.314 45.2759 240.254 44.9699 240.254 44.6609V13.1186C240.255 12.8096 240.195 12.5036 240.079 12.218C239.963 11.9324 239.792 11.6728 239.577 11.4541C239.361 11.2355 239.106 11.062 238.824 10.9437C238.543 10.8253 238.241 10.7644 237.937 10.7644H230.977C230.361 10.7644 229.77 10.5163 229.335 10.0748C228.9 9.63334 228.655 9.03453 228.655 8.41015C228.655 8.10116 228.715 7.7952 228.832 7.50978C228.949 7.22436 229.12 6.96506 229.335 6.74674C229.551 6.52842 229.807 6.35537 230.088 6.23746C230.37 6.11954 230.672 6.05909 230.977 6.05957H254.828C255.133 6.05909 255.434 6.11954 255.716 6.23746C255.998 6.35537 256.253 6.52842 256.469 6.74674C256.685 6.96506 256.856 7.22436 256.972 7.50978C257.089 7.7952 257.149 8.10116 257.149 8.41015C257.149 9.03453 256.905 9.63334 256.469 10.0748C256.034 10.5163 255.444 10.7644 254.828 10.7644Z" fill="white"/>
<path d="M290.621 47.0115C290.279 47.0115 289.94 46.9431 289.624 46.8103C289.308 46.6774 289.02 46.4827 288.778 46.2372C288.536 45.9918 288.344 45.7004 288.213 45.3797C288.082 45.0589 288.015 44.7152 288.015 44.368V31.1873C288.015 30.4862 287.74 29.8138 287.251 29.318C286.763 28.8223 286.1 28.5438 285.408 28.5438H270.181C269.49 28.5438 268.827 28.8223 268.338 29.318C267.85 29.8138 267.575 30.4862 267.575 31.1873V44.368C267.575 45.0691 267.3 45.7415 266.812 46.2372C266.323 46.733 265.66 47.0115 264.968 47.0115C264.277 47.0115 263.614 46.733 263.125 46.2372C262.637 45.7415 262.362 45.0691 262.362 44.368V8.70305C262.362 8.00195 262.637 7.32957 263.125 6.83383C263.614 6.33808 264.277 6.05957 264.968 6.05957C265.66 6.05957 266.323 6.33808 266.812 6.83383C267.3 7.32957 267.575 8.00195 267.575 8.70305V21.2101C267.575 21.9116 267.849 22.5843 268.338 23.0807C268.827 23.577 269.49 23.8563 270.181 23.8573H285.408C286.1 23.8563 286.763 23.577 287.252 23.0807C287.74 22.5843 288.015 21.9116 288.015 21.2101V8.70305C288.015 8.3559 288.082 8.01216 288.213 7.69144C288.344 7.37071 288.536 7.0793 288.778 6.83383C289.02 6.58836 289.308 6.39364 289.624 6.26079C289.94 6.12795 290.279 6.05957 290.621 6.05957C291.313 6.05957 291.976 6.33808 292.464 6.83383C292.953 7.32957 293.228 8.00195 293.228 8.70305V44.368C293.228 45.0691 292.953 45.7415 292.464 46.2372C291.976 46.733 291.313 47.0115 290.621 47.0115Z" fill="white"/>
<path d="M126.939 17.4719C126.774 17.0053 126.469 16.6023 126.069 16.3184C125.668 16.0344 125.19 15.8834 124.701 15.8862C124.212 15.8891 123.736 16.0455 123.338 16.3341C122.941 16.6226 122.641 17.0291 122.481 17.4975L112.81 45.4114C112.625 45.9465 112.281 46.41 111.825 46.738C111.369 47.066 110.823 47.2421 110.264 47.2421C109.827 47.2435 109.395 47.1367 109.007 46.9309C108.618 46.7251 108.286 46.4265 108.037 46.0609C107.788 45.6954 107.631 45.2738 107.579 44.8328C107.526 44.3917 107.581 43.9444 107.737 43.5295L120.903 8.46501C121.199 7.68053 121.722 7.00546 122.404 6.52892C123.086 6.05239 123.895 5.7968 124.723 5.7959C125.554 5.79569 126.366 6.05288 127.05 6.53308C127.734 7.01329 128.257 7.69365 128.549 8.48331L150.755 68.3057C150.907 68.7196 150.959 69.1649 150.905 69.6035C150.851 70.0421 150.693 70.4609 150.445 70.824C150.196 71.1871 149.865 71.4838 149.479 71.6886C149.093 71.8934 148.663 72.0003 148.228 72C147.675 72 147.135 71.827 146.683 71.5046C146.231 71.1822 145.888 70.7261 145.7 70.1986C142.834 62.151 131.159 29.3932 126.939 17.4719Z" fill="url(#paint0_linear_49_25)"/>
<path d="M181.602 47.0114C181.04 47.0124 180.491 46.8371 180.031 46.5093C179.571 46.1816 179.222 45.7175 179.032 45.1807L169.079 16.8164C168.935 16.4084 168.671 16.0554 168.321 15.8058C167.972 15.5563 167.555 15.4223 167.128 15.4223C166.701 15.4223 166.284 15.5563 165.935 15.8058C165.585 16.0554 165.321 16.4084 165.177 16.8164L155.639 43.9103C155.317 44.8148 154.729 45.5972 153.954 46.1518C153.179 46.7064 152.255 47.0064 151.307 47.0114C150.367 47.012 149.45 46.7227 148.676 46.1818C147.902 45.641 147.309 44.8743 146.975 43.9835L133.95 9.30706C133.794 8.89071 133.739 8.44213 133.791 7.99973C133.843 7.55733 134 7.13427 134.248 6.76681C134.497 6.39935 134.829 6.09843 135.217 5.8898C135.606 5.68116 136.038 5.57103 136.477 5.56885C137.026 5.57265 137.562 5.74501 138.013 6.06326C138.464 6.38152 138.809 6.83076 139.004 7.35191L149.473 35.5734C149.621 35.9746 149.888 36.3194 150.237 36.5606C150.586 36.8019 151 36.9277 151.422 36.9209C151.845 36.9141 152.255 36.775 152.596 36.5226C152.937 36.2702 153.193 35.9169 153.329 35.5112L162.274 9.03246C162.616 8.02202 163.26 7.14503 164.117 6.52405C164.974 5.90306 166.001 5.56911 167.054 5.56885C168.091 5.5682 169.103 5.89107 169.953 6.49364C170.803 7.09622 171.449 7.94934 171.805 8.93727L184.158 43.2952C184.308 43.7127 184.357 44.1607 184.3 44.6014C184.244 45.0421 184.083 45.4625 183.833 45.827C183.582 46.1915 183.248 46.4895 182.86 46.6956C182.472 46.9018 182.04 47.0101 181.602 47.0114Z" fill="url(#paint1_linear_49_25)"/>
<defs>
<linearGradient id="paint0_linear_49_25" x1="171.992" y1="67.0755" x2="100.292" y2="14.9856" gradientUnits="userSpaceOnUse">
<stop stop-color="#1D71B8"/>
<stop offset="1" stop-color="#662483"/>
</linearGradient>
<linearGradient id="paint1_linear_49_25" x1="186.714" y1="46.81" x2="115.017" y2="-5.27991" gradientUnits="userSpaceOnUse">
<stop stop-color="#1D71B8"/>
<stop offset="1" stop-color="#662483"/>
</linearGradient>
</defs>
</svg>
