<svg width="300" viewBox="0 0 604 421" fill="none" xmlns="http://www.w3.org/2000/svg">
<path d="M91.304 113.58H89.1807V213.66H91.304V113.58Z" fill="white"/>
<path d="M250.555 229.604H85.9956V231.73H250.555V229.604Z" fill="white"/>
<path d="M284.528 364.604H35.0352V366.729H284.528V364.604Z" fill="white"/>
<path d="M474.568 18.0707H318.465V20.1966H474.568V18.0707Z" fill="white"/>
<path d="M302.576 35.0784H300.453V178.581H302.576V35.0784Z" fill="white"/>
<path d="M90.2423 114.802C86.6727 114.802 83.1832 113.742 80.2151 111.757C77.2471 109.771 74.9338 106.949 73.5677 103.647C72.2017 100.345 71.8442 96.7114 72.5406 93.2061C73.2371 89.7007 74.956 86.4808 77.4801 83.9536C80.0043 81.4263 83.2202 79.7053 86.7212 79.008C90.2223 78.3107 93.8512 78.6686 97.1492 80.0363C100.447 81.4041 103.266 83.7202 105.249 86.692C107.232 89.6637 108.291 93.1574 108.291 96.7315C108.285 101.523 106.382 106.116 102.999 109.504C99.615 112.891 95.0274 114.797 90.2423 114.802ZM90.2423 80.7867C87.0926 80.7867 84.0137 81.7219 81.3948 83.4739C78.7759 85.226 76.7348 87.7162 75.5294 90.6297C74.3241 93.5432 74.0087 96.7492 74.6232 99.8422C75.2377 102.935 76.7544 105.776 78.9815 108.006C81.2087 110.236 84.0463 111.755 87.1355 112.37C90.2246 112.985 93.4266 112.669 96.3366 111.463C99.2465 110.256 101.734 108.212 103.484 105.59C105.233 102.968 106.167 99.8851 106.167 96.7315C106.163 92.5041 104.483 88.4513 101.498 85.4621C98.5124 82.4729 94.4645 80.7914 90.2423 80.7867Z" fill="white"/>
<path d="M18.0485 383.737C14.4788 383.737 10.9893 382.677 8.02128 380.692C5.05323 378.706 2.73991 375.884 1.37387 372.582C0.00782756 369.28 -0.349602 365.646 0.346801 362.141C1.0432 358.636 2.76218 355.416 5.2863 352.888C7.81041 350.361 11.0263 348.64 14.5274 347.943C18.0284 347.246 21.6574 347.604 24.9553 348.971C28.2532 350.339 31.072 352.655 33.0552 355.627C35.0384 358.599 36.0969 362.092 36.0969 365.666C36.0916 370.457 34.1883 375.051 30.8047 378.438C27.4212 381.826 22.8336 383.732 18.0485 383.737ZM18.0485 349.722C14.8988 349.722 11.8198 350.657 9.20096 352.409C6.58209 354.161 4.54091 356.651 3.33558 359.565C2.13024 362.478 1.81488 365.684 2.42936 368.777C3.04383 371.87 4.56053 374.711 6.7877 376.941C9.01486 379.171 11.8525 380.69 14.9416 381.305C18.0308 381.92 21.2328 381.604 24.1427 380.397C27.0527 379.191 29.5398 377.147 31.2897 374.525C33.0396 371.903 33.9736 368.82 33.9736 365.666C33.9689 361.439 32.2895 357.386 29.304 354.397C26.3185 351.408 22.2706 349.726 18.0485 349.722Z" fill="white"/>
<path d="M91.3037 247.675C100.685 247.675 108.29 240.061 108.29 230.668C108.29 221.274 100.685 213.66 91.3037 213.66C81.9221 213.66 74.3169 221.274 74.3169 230.668C74.3169 240.061 81.9221 247.675 91.3037 247.675Z" fill="#141414"/>
<path d="M513.849 113.58H511.726V213.66H513.849V113.58Z" fill="white"/>
<path d="M494.74 229.604H353.537V231.73H494.74V229.604Z" fill="white"/>
<path d="M587.105 258.305H584.982V348.659H587.105V258.305Z" fill="white"/>
<path d="M567.995 364.604H318.502V366.729H567.995V364.604Z" fill="white"/>
<path d="M302.576 282.754H300.453V348.659H302.576V282.754Z" fill="white"/>
<path d="M512.788 113.739C522.169 113.739 529.774 106.125 529.774 96.7316C529.774 87.3385 522.169 79.7239 512.788 79.7239C503.406 79.7239 495.801 87.3385 495.801 96.7316C495.801 106.125 503.406 113.739 512.788 113.739Z" fill="#141414"/>
<path d="M491.554 36.1414C487.985 36.1414 484.495 35.0816 481.527 33.096C478.559 31.1104 476.246 28.2881 474.88 24.9861C473.514 21.6841 473.156 18.0507 473.853 14.5453C474.549 11.0399 476.268 7.82004 478.792 5.29281C481.316 2.76557 484.532 1.04449 488.033 0.347229C491.534 -0.350034 495.163 0.00783723 498.461 1.37557C501.759 2.7433 504.578 5.05947 506.561 8.03119C508.544 11.0029 509.603 14.4967 509.603 18.0707C509.597 22.8618 507.694 27.455 504.311 30.8428C500.927 34.2305 496.339 36.1361 491.554 36.1414ZM491.554 2.12598C488.405 2.12598 485.326 3.06112 482.707 4.81315C480.088 6.56519 478.047 9.05542 476.841 11.9689C475.636 14.8825 475.321 18.0884 475.935 21.1814C476.55 24.2744 478.066 27.1155 480.294 29.3454C482.521 31.5753 485.358 33.0939 488.447 33.7091C491.537 34.3244 494.739 34.0086 497.649 32.8018C500.559 31.595 503.046 29.5513 504.796 26.9292C506.545 24.3071 507.479 21.2243 507.479 18.0707C507.475 13.8434 505.795 9.79049 502.81 6.80128C499.824 3.81208 495.776 2.13068 491.554 2.12598Z" fill="white"/>
<path d="M301.515 36.1414C297.946 36.1414 294.456 35.0816 291.488 33.096C288.52 31.1104 286.207 28.2881 284.841 24.9861C283.475 21.6841 283.117 18.0507 283.814 14.5453C284.51 11.0399 286.229 7.82004 288.753 5.29281C291.277 2.76557 294.493 1.04449 297.994 0.347229C301.495 -0.350034 305.124 0.00783723 308.422 1.37557C311.72 2.7433 314.539 5.05947 316.522 8.03119C318.505 11.0029 319.564 14.4967 319.564 18.0707C319.558 22.8618 317.655 27.455 314.272 30.8428C310.888 34.2305 306.3 36.1361 301.515 36.1414ZM301.515 2.12598C298.366 2.12598 295.287 3.06112 292.668 4.81315C290.049 6.56519 288.008 9.05542 286.802 11.9689C285.597 14.8825 285.282 18.0884 285.896 21.1814C286.511 24.2744 288.027 27.1155 290.255 29.3454C292.482 31.5753 295.319 33.0939 298.408 33.7091C301.498 34.3244 304.7 34.0086 307.61 32.8018C310.519 31.595 313.007 29.5513 314.756 26.9292C316.506 24.3071 317.44 21.2243 317.44 18.0707C317.436 13.8434 315.756 9.79049 312.771 6.80128C309.785 3.81208 305.737 2.13068 301.515 2.12598Z" fill="white"/>
<path d="M584.982 259.368C581.412 259.368 577.922 258.308 574.954 256.323C571.986 254.337 569.673 251.515 568.307 248.213C566.941 244.911 566.584 241.277 567.28 237.772C567.976 234.266 569.695 231.047 572.219 228.519C574.743 225.992 577.959 224.271 581.46 223.574C584.962 222.877 588.59 223.234 591.888 224.602C595.186 225.97 598.005 228.286 599.988 231.258C601.971 234.229 603.03 237.723 603.03 241.297C603.025 246.088 601.121 250.682 597.738 254.069C594.354 257.457 589.767 259.363 584.982 259.368ZM584.982 225.353C581.832 225.353 578.753 226.288 576.134 228.04C573.515 229.792 571.474 232.282 570.269 235.196C569.063 238.109 568.748 241.315 569.362 244.408C569.977 247.501 571.494 250.342 573.721 252.572C575.948 254.802 578.786 256.32 581.875 256.936C584.964 257.551 588.166 257.235 591.076 256.028C593.986 254.822 596.473 252.778 598.223 250.156C599.973 247.534 600.907 244.451 600.907 241.297C600.902 237.07 599.223 233.017 596.237 230.028C593.252 227.039 589.204 225.357 584.982 225.353Z" fill="white"/>
<path d="M584.981 382.674C594.363 382.674 601.968 375.06 601.968 365.667C601.968 356.273 594.363 348.659 584.981 348.659C575.6 348.659 567.995 356.273 567.995 365.667C567.995 375.06 575.6 382.674 584.981 382.674Z" fill="#141414"/>
<path d="M301.515 383.737C297.946 383.737 294.456 382.677 291.488 380.692C288.52 378.706 286.207 375.884 284.841 372.582C283.475 369.28 283.117 365.646 283.814 362.141C284.51 358.636 286.229 355.416 288.753 352.888C291.277 350.361 294.493 348.64 297.994 347.943C301.495 347.246 305.124 347.604 308.422 348.971C311.72 350.339 314.539 352.655 316.522 355.627C318.505 358.599 319.564 362.092 319.564 365.666C319.558 370.457 317.655 375.051 314.272 378.438C310.888 381.826 306.3 383.732 301.515 383.737ZM301.515 349.722C298.366 349.722 295.287 350.657 292.668 352.409C290.049 354.161 288.008 356.651 286.802 359.565C285.597 362.478 285.282 365.684 285.896 368.777C286.511 371.87 288.027 374.711 290.255 376.941C292.482 379.171 295.319 380.69 298.408 381.305C301.498 381.92 304.7 381.604 307.61 380.397C310.519 379.191 313.007 377.147 314.756 374.525C316.506 371.903 317.44 368.82 317.44 365.666C317.436 361.439 315.756 357.386 312.771 354.397C309.785 351.408 305.737 349.726 301.515 349.722Z" fill="white"/>
<path d="M511.726 248.738C508.157 248.738 504.667 247.678 501.699 245.693C498.731 243.707 496.418 240.885 495.052 237.583C493.686 234.281 493.328 230.647 494.025 227.142C494.721 223.637 496.44 220.417 498.964 217.889C501.488 215.362 504.704 213.641 508.205 212.944C511.706 212.247 515.335 212.605 518.633 213.972C521.931 215.34 524.75 217.656 526.733 220.628C528.716 223.6 529.775 227.093 529.775 230.667C529.769 235.458 527.866 240.052 524.482 243.439C521.099 246.827 516.511 248.733 511.726 248.738ZM511.726 214.723C508.576 214.723 505.498 215.658 502.879 217.41C500.26 219.162 498.219 221.652 497.013 224.566C495.808 227.479 495.493 230.685 496.107 233.778C496.722 236.871 498.238 239.712 500.465 241.942C502.693 244.172 505.53 245.691 508.619 246.306C511.709 246.921 514.911 246.605 517.82 245.398C520.73 244.192 523.218 242.148 524.967 239.526C526.717 236.904 527.651 233.821 527.651 230.667C527.647 226.44 525.967 222.387 522.982 219.398C519.996 216.409 515.948 214.727 511.726 214.723Z" fill="white"/>
<path d="M385.608 257.908C385.783 236.399 386.656 214.682 388.228 192.757C388.254 192.321 388.286 191.893 388.319 191.457C389.149 180.043 390.165 168.588 391.367 157.092V157.027C391.366 155.132 390.614 153.315 389.276 151.975C387.939 150.635 386.125 149.882 384.233 149.881H192.899C191.013 149.884 189.206 150.634 187.869 151.966C186.533 153.299 185.776 155.106 185.764 156.994C184.104 172.826 182.802 188.579 181.86 204.255C181.821 204.768 181.795 205.275 181.769 205.788C181.302 213.538 180.93 221.269 180.653 228.98C180.634 229.435 180.614 229.89 180.608 230.344C178.837 277.657 180.561 325.036 185.764 372.094C185.778 373.982 186.535 375.787 187.871 377.118C189.207 378.449 191.014 379.198 192.899 379.201H384.233C386.125 379.2 387.939 378.447 389.276 377.107C390.614 375.767 391.366 373.95 391.367 372.055V371.984C390.427 363.623 389.601 355.208 388.89 346.739C388.786 345.498 388.684 344.257 388.585 343.017C388.092 336.917 387.662 330.793 387.294 324.645C387.216 323.404 387.145 322.163 387.08 320.923C386.386 308.619 385.932 296.219 385.718 283.725C385.692 282.484 385.673 281.25 385.653 280.002C385.575 273.902 385.552 267.778 385.582 261.631C385.582 260.39 385.588 259.149 385.608 257.908Z" fill="#F0F0F0"/>
<path d="M443.254 198.603C443.253 196.708 442.501 194.892 441.164 193.552C439.826 192.212 438.012 191.459 436.12 191.457H244.786C242.9 191.461 241.093 192.211 239.756 193.543C238.42 194.875 237.664 196.682 237.651 198.571C231.191 260.267 230.121 320.871 234.447 379.201C234.973 386.419 235.587 393.599 236.289 400.743C236.665 404.57 237.065 408.385 237.489 412.19C237.541 412.683 237.593 413.177 237.651 413.671C237.665 415.558 238.422 417.364 239.758 418.695C241.094 420.026 242.901 420.775 244.786 420.778H436.12C438.012 420.777 439.826 420.024 441.164 418.684C442.501 417.344 443.253 415.527 443.254 413.632V413.56C435.517 344.849 435.517 272.551 443.254 198.668V198.603Z" fill="white"/>
<path d="M443.254 198.603C443.253 196.708 442.501 194.892 441.164 193.552C439.826 192.212 438.012 191.459 436.12 191.457H244.786C242.9 191.461 241.093 192.211 239.756 193.543C238.42 194.875 237.664 196.682 237.651 198.571C231.191 260.267 230.121 320.871 234.447 379.201C234.973 386.419 235.587 393.599 236.289 400.743C236.665 404.57 237.065 408.385 237.489 412.19C237.541 412.683 237.593 413.177 237.651 413.671C237.665 415.558 238.422 417.364 239.758 418.695C241.094 420.026 242.901 420.775 244.786 420.778H436.12C438.012 420.777 439.826 420.024 441.164 418.684C442.501 417.344 443.253 415.527 443.254 413.632V413.56C435.517 344.849 435.517 272.551 443.254 198.668V198.603ZM441.957 413.671C441.946 415.214 441.326 416.691 440.232 417.779C439.139 418.866 437.661 419.477 436.12 419.479H244.786C243.238 419.476 241.755 418.86 240.661 417.764C239.567 416.668 238.951 415.182 238.948 413.632V413.56C238.903 413.145 238.858 412.722 238.812 412.307C238.365 408.331 237.947 404.344 237.56 400.347C236.879 393.337 236.276 386.289 235.751 379.201C231.425 320.903 232.488 260.338 238.948 198.668V198.603C238.951 197.053 239.567 195.568 240.661 194.472C241.755 193.376 243.238 192.759 244.786 192.757H436.12C437.662 192.757 439.142 193.369 440.236 194.458C441.329 195.548 441.948 197.026 441.957 198.571C434.22 272.512 434.22 344.888 441.957 413.671Z" fill="#E4E4E4"/>
<path d="M257.974 257.908C257.482 257.91 257.01 258.106 256.663 258.456C256.315 258.805 256.12 259.278 256.12 259.771C256.12 260.264 256.315 260.736 256.663 261.085C257.01 261.435 257.482 261.631 257.974 261.633H413.462C413.954 261.631 414.425 261.435 414.773 261.085C415.121 260.736 415.316 260.264 415.316 259.771C415.316 259.278 415.121 258.805 414.773 258.456C414.425 258.106 413.954 257.91 413.462 257.908H257.974Z" fill="#E6E6E6"/>
<path d="M257.974 269.082C257.482 269.083 257.01 269.28 256.662 269.629C256.314 269.978 256.119 270.451 256.119 270.944C256.119 271.437 256.314 271.91 256.662 272.26C257.01 272.609 257.482 272.805 257.974 272.806H363.529C364.021 272.805 364.493 272.609 364.841 272.26C365.189 271.91 365.385 271.437 365.385 270.944C365.385 270.451 365.189 269.978 364.841 269.629C364.493 269.28 364.021 269.083 363.529 269.082H257.974Z" fill="#E6E6E6"/>
<path d="M257.974 280.003C257.482 280.004 257.01 280.2 256.662 280.549C256.314 280.898 256.119 281.371 256.119 281.865C256.119 282.358 256.314 282.831 256.662 283.18C257.01 283.529 257.482 283.726 257.974 283.727H413.462C413.954 283.726 414.426 283.529 414.774 283.18C415.122 282.831 415.317 282.358 415.317 281.865C415.317 281.371 415.122 280.898 414.774 280.549C414.426 280.2 413.954 280.004 413.462 280.003H257.974Z" fill="#E6E6E6"/>
<path d="M257.974 291.176C257.482 291.178 257.01 291.374 256.663 291.723C256.315 292.072 256.12 292.545 256.12 293.038C256.12 293.531 256.315 294.004 256.663 294.353C257.01 294.702 257.482 294.899 257.974 294.9H363.529C364.021 294.899 364.493 294.702 364.84 294.353C365.188 294.004 365.383 293.531 365.383 293.038C365.383 292.545 365.188 292.072 364.84 291.723C364.493 291.374 364.021 291.178 363.529 291.176H257.974Z" fill="#E6E6E6"/>
<path d="M257.974 320.923C257.482 320.924 257.01 321.121 256.663 321.47C256.315 321.819 256.12 322.292 256.12 322.785C256.12 323.278 256.315 323.751 256.663 324.1C257.01 324.449 257.482 324.646 257.974 324.647H413.462C413.954 324.646 414.425 324.449 414.773 324.1C415.121 323.751 415.316 323.278 415.316 322.785C415.316 322.292 415.121 321.819 414.773 321.47C414.425 321.121 413.954 320.924 413.462 320.923H257.974Z" fill="#E6E6E6"/>
<path d="M257.974 332.096C257.482 332.097 257.01 332.294 256.662 332.643C256.314 332.992 256.119 333.465 256.119 333.959C256.119 334.452 256.314 334.925 256.662 335.274C257.01 335.623 257.482 335.82 257.974 335.821H363.529C364.021 335.82 364.493 335.623 364.841 335.274C365.189 334.925 365.385 334.452 365.385 333.959C365.385 333.465 365.189 332.992 364.841 332.643C364.493 332.294 364.021 332.097 363.529 332.096H257.974Z" fill="#E6E6E6"/>
<path d="M257.974 343.017C257.482 343.018 257.01 343.215 256.662 343.564C256.314 343.913 256.119 344.386 256.119 344.879C256.119 345.372 256.314 345.846 256.662 346.195C257.01 346.544 257.482 346.74 257.974 346.741H413.462C413.954 346.74 414.426 346.544 414.774 346.195C415.122 345.846 415.317 345.372 415.317 344.879C415.317 344.386 415.122 343.913 414.774 343.564C414.426 343.215 413.954 343.018 413.462 343.017H257.974Z" fill="#E6E6E6"/>
<path d="M257.974 354.19C257.482 354.192 257.01 354.388 256.663 354.738C256.315 355.087 256.12 355.559 256.12 356.052C256.12 356.545 256.315 357.018 256.663 357.367C257.01 357.717 257.482 357.913 257.974 357.915H363.529C364.021 357.913 364.493 357.717 364.84 357.367C365.188 357.018 365.383 356.545 365.383 356.052C365.383 355.559 365.188 355.087 364.84 354.738C364.493 354.388 364.021 354.192 363.529 354.19H257.974Z" fill="#E6E6E6"/>
<path d="M288.739 234.788H259.042C258.657 234.787 258.288 234.634 258.016 234.362C257.744 234.089 257.591 233.72 257.591 233.335V228.569C257.591 228.184 257.744 227.814 258.016 227.542C258.288 227.269 258.657 227.116 259.042 227.116H288.739C289.124 227.116 289.493 227.269 289.765 227.542C290.037 227.814 290.19 228.184 290.19 228.569V233.335C290.19 233.72 290.037 234.089 289.765 234.362C289.493 234.634 289.124 234.787 288.739 234.788Z" fill="#513A92"/>
<path d="M391.91 388.086L382.813 391.097C381.297 391.599 379.781 392.101 378.265 392.602C376.861 393.066 375.341 393.616 373.838 393.417C372.799 393.28 371.615 392.681 371.291 391.61C370.985 390.597 371.634 389.537 372.421 388.938C374.591 387.284 377.336 388.968 378.874 390.681C380.756 392.776 381.82 395.481 383.585 397.674C385.156 399.64 387.147 401.229 389.412 402.322C393.914 404.451 399.406 404.225 403.421 401.122C408.216 397.418 408.705 390.997 408.731 385.395C408.722 385.142 408.615 384.903 408.434 384.727C408.252 384.552 408.01 384.453 407.758 384.453C407.505 384.453 407.263 384.552 407.081 384.727C406.9 384.903 406.793 385.142 406.785 385.395C406.762 390.472 406.473 396.696 401.852 399.872C397.424 402.915 391.606 402.108 387.53 398.866C385.258 397.059 383.861 394.703 382.37 392.263C380.914 389.882 379.106 387.573 376.367 386.647C375.192 386.219 373.906 386.211 372.726 386.624C371.545 387.036 370.544 387.845 369.89 388.912C369.591 389.415 369.403 389.977 369.338 390.559C369.273 391.141 369.332 391.73 369.513 392.287C369.693 392.845 369.989 393.357 370.382 393.79C370.776 394.224 371.257 394.568 371.793 394.801C374.97 396.317 378.604 394.541 381.663 393.528L392.427 389.965C393.61 389.574 393.103 387.691 391.91 388.086L391.91 388.086Z" fill="#513A92"/>
<path d="M244.124 149.881C243.104 168.049 236.436 185.443 225.055 199.627C213.673 213.81 198.148 224.074 180.653 228.98C180.634 229.435 180.614 229.89 180.608 230.344C198.465 225.424 214.329 215.01 225.958 200.572C237.588 186.134 244.396 168.403 245.422 149.881H244.124Z" fill="white"/>
<path d="M224.258 149.881C221.244 161.351 215.931 172.087 208.642 181.435C201.353 190.783 192.24 198.547 181.86 204.255C181.821 204.768 181.795 205.275 181.769 205.788C192.527 199.998 201.974 192.043 209.517 182.422C217.06 172.801 222.536 161.722 225.601 149.881H224.258Z" fill="white"/>
</svg>