<svg width="2640" height="2090" viewBox="0 0 2640 2161" fill="none" xmlns="http://www.w3.org/2000/svg">
<path d="M864.964 475.03C332.945 312.037 -276.325 -180.859 -359.94 491.425L-421.699 904.492L2654.62 1364.44L2789.85 459.998C2789.85 459.998 2611.06 688.622 2069.02 479.625C1526.98 270.627 1396.98 638.023 864.964 475.03Z" fill="#513A92"/>
<path d="M1254.96 535.03C722.945 372.037 113.675 -120.859 30.0603 551.425L-31.699 964.492L3044.62 1424.44L3179.85 519.998C3179.85 519.998 3001.06 748.622 2459.02 539.625C1916.98 330.627 1786.98 698.023 1254.96 535.03Z" stroke="#513A92" stroke-width="2"/>
<path d="M1849.52 572.825C2407.59 527.519 3112.43 176.492 3050.34 851.107L3022.41 1267.83L-101 1058.45L-39.8335 146C-39.8335 146 86.879 407.609 664.681 319.51C1242.48 231.411 1291.44 618.131 1849.52 572.825Z" stroke="#513A92" stroke-width="2"/>
<path d="M776.703 1627.36C424.703 1637.33 -727.454 2018.49 -614.113 1243.43L-556.048 764.03L3014.3 1196.46L2946.7 1627.36C2946.7 1627.36 2618.1 1753.42 1949.7 1819.86C1281.3 1886.29 1419.8 1609.12 776.703 1627.36Z" fill="#513A92"/>
<path d="M1918.4 1680.56C2465.54 1844.13 3094.27 2345.73 3175.39 1655.19L3235.89 1230.83L75.4852 780.257L-56.9841 1709.43C-56.9841 1709.43 124.904 1473.54 682.655 1684.25C1240.41 1894.96 1371.26 1517 1918.4 1680.56Z" stroke="#513A92" stroke-width="2"/>
<path d="M1140.3 1619.41C585.437 1672.16 -111.314 2031.22 -58.7679 1358.89L-36.6758 943.716L3075.1 1109.3L3026.73 2018.35C3026.73 2018.35 2897.02 1759.7 2323.1 1855.31C1749.19 1950.92 1695.16 1566.67 1140.3 1619.41Z" stroke="#513A92" stroke-width="2"/>
<rect x="1" y="596" width="2639" height="828" fill="#513A92"/>
</svg>
