<svg width="0" height="0" viewBox="0 0 2640 1725" fill="none" xmlns="http://www.w3.org/2000/svg">
<path d="M304.944 787.389C-98.4187 759.541 -295.759 875.803 -295.759 875.803L-43.8307 1238.53L2820.87 1238.53C2820.87 1238.53 2925.93 809.119 2920.79 820.22C2920.79 820.22 2533.38 1073.51 1828.86 1061.24C1124.34 1048.97 708.306 815.237 304.944 787.389Z" fill="#523A92" fill-opacity="0.25"/>
<path d="M250.205 643.409C-377.832 518.974 -654.026 816.866 -654.026 816.866L-84.5104 848.491L15.4049 1199.24L2855.84 1250.51C2855.84 1250.51 3366.12 367.412 2855.84 765.596C2459.2 1075.11 1920.75 1158.56 1300.74 1045.43C825.429 958.698 747.728 741.985 250.205 643.409Z" fill="#3756A6" fill-opacity="0.25"/>
    <path d="M1852.41 1144.13C2744.43 1060.99 2813.59 546.523 2861.55 595.972L2861.55 1265.84C2039.86 1274.98 -101.324 1238.53 -101.324 1238.53L-101.324 726.923C933.51 604.257 960.388 1227.27 1852.41 1144.13Z" fill="#236BB4" fill-opacity="0.25"/>
</svg>
        